<?xml version="1.0" encoding="UTF-8"?>
<svg width="28px" height="28px" viewBox="0 0 28 28" version="1.1" xmlns="http://www.w3.org/2000/svg" xmlns:xlink="http://www.w3.org/1999/xlink">
    <title>bot_ic_4_nor@2x</title>
    <defs>
        <path d="M14,0 C21.7319865,0 28,6.2680135 28,14 C28,21.7319865 21.7319865,28 14,28 C6.2680135,28 0,21.7319865 0,14 C0,6.2680135 6.2680135,0 14,0 Z M11.9345515,9 L8.1641196,9 L8.1641196,9.21347844 L9.37774086,10.6324822 C9.4986711,10.7371285 9.55913621,10.8878192 9.54186047,11.0426957 L9.54186047,11.0426957 L9.54186047,16.6098786 C9.57641196,16.8107995 9.51162791,17.0159062 9.36478405,17.1624111 L9.36478405,17.1624111 L8,18.7655923 L8,18.9790707 L11.8784053,18.9790707 L11.8784053,18.7655923 L10.5136213,17.1624111 C10.3667774,17.0159062 10.2933555,16.8107995 10.323588,16.6098786 L10.323588,16.6098786 L10.323588,11.796149 L13.7225914,18.9790707 L14.1156146,18.9790707 L17.0352159,11.796149 L17.0352159,17.5265802 C17.0352159,17.6772708 17.0352159,17.7065718 16.9315615,17.8070322 L16.9315615,17.8070322 L15.8820598,18.7948933 L15.8820598,19 L20.9784053,19 L20.9784053,18.7865216 L19.9634551,17.8237756 C19.8727575,17.7609879 19.8295681,17.6521557 19.8468439,17.5433236 L19.8468439,17.5433236 L19.8468439,10.4566764 C19.8295681,10.3520301 19.8727575,10.243198 19.9634551,10.1762244 L19.9634551,10.1762244 L21,9.21347844 L21,9.00418585 L17.4066445,9.00418585 L14.845515,15.1950607 L11.9345515,9 Z" id="path-1"></path>
    </defs>
    <g id="页面-1" stroke="none" stroke-width="1" fill="none" fill-rule="evenodd" opacity="0.6">
        <g id="$avav_Home" transform="translate(-779.000000, -6245.000000)">
            <g id="bot" transform="translate(0.000000, 6009.000000)">
                <g id="形状" transform="translate(779.000000, 236.000000)">
                    <mask id="mask-2" fill="white">
                        <use xlink:href="#path-1"></use>
                    </mask>
                    <use id="形状结合" fill="#D6D6D6" xlink:href="#path-1"></use>
                </g>
            </g>
        </g>
    </g>
</svg>