<?xml version="1.0" encoding="UTF-8"?>
<svg width="28px" height="28px" viewBox="0 0 28 28" version="1.1" xmlns="http://www.w3.org/2000/svg" xmlns:xlink="http://www.w3.org/1999/xlink">
    <title>bot_ic_2_hover@2x</title>
    <g id="页面-1" stroke="none" stroke-width="1" fill="none" fill-rule="evenodd">
        <g id="$avav_Home" transform="translate(-695.000000, -6296.000000)" fill="#34BAE2" fill-rule="nonzero">
            <g id="bot" transform="translate(0.000000, 6009.000000)">
                <g id="bot_ic_2_nor备份" transform="translate(695.000000, 287.000000)">
                    <path d="M14.0241281,28 C8.3525568,28.0139579 3.24114071,24.5977758 1.07053936,19.3614968 C-1.10006199,14.1252177 0.0902677913,8.10489683 4.0953774,4.10068344 C8.10048697,0.0964700546 14.1361591,-1.10759412 19.3596062,1.07652228 C24.5970572,3.24663793 28,8.35691029 28,14.0272125 C28,21.7416236 21.7542697,27.9859564 14.0241281,28 Z M17.1228571,9.01644231 L16.7541108,9.06460949 C16.528105,9.11277667 16.3020991,9.18502742 16.0879883,9.26931999 C15.2434402,9.64261561 14.6130029,10.4012487 14.3988921,11.3043832 C14.2799417,11.7740132 14.2799417,12.2677268 14.3988921,12.725315 C13.9468805,12.725315 13.4948688,12.665106 13.0666472,12.544688 C11.7344023,12.2436432 10.4854227,11.6295117 9.42676385,10.7504607 C9.10559767,10.497583 8.80822157,10.1965382 8.54653061,9.87140972 C8.45137026,9.77507536 8.35620991,9.66669921 8.27294459,9.54628125 C8.13020406,9.79915894 8.02314867,10.0640784 7.95177842,10.3289979 C7.7257726,11.3043832 7.97556849,12.3279358 8.61790087,13.0865688 C8.77253643,13.2792375 9.01043732,13.3996554 9.16507289,13.5682406 C9.03422739,13.5923241 8.89148689,13.5802823 8.7606414,13.5321152 C8.54653061,13.4959898 8.33241983,13.4357808 8.13020409,13.3514883 L7.80903789,13.2310703 C7.77335275,14.2907482 8.30862973,15.2902171 9.21265306,15.8320979 C9.49813412,16.0488502 9.83119534,16.1813099 10.1880466,16.2294771 C9.99772594,16.3980622 9.15317785,16.3258115 8.85580175,16.2896861 C9.15317785,17.2048624 9.85498541,17.9153283 10.7471137,18.228415 C11.0325948,18.3367911 11.3299708,18.3849583 11.6273469,18.3849583 C11.377551,18.6017106 11.103965,18.7702957 10.818484,18.9147972 C10.2594169,19.2278839 9.65276967,19.4446362 9.03422739,19.5770959 C8.7606414,19.6373049 8.47516034,19.6252631 8.1658892,19.6734303 C7.84472303,19.6975139 7.53545189,19.6854721 7.21428571,19.6373049 L7.47597667,19.7938482 C7.74956267,19.9624333 8.02314869,20.1069349 8.32052477,20.2273528 C8.89148686,20.4681887 9.47434402,20.6608574 10.0690962,20.8053589 C11.4727113,21.1064038 12.9358017,21.0582366 14.3156268,20.6608574 C17.4321283,19.6734303 19.4067055,17.3614058 20.1560933,13.953578 C20.2750437,13.3153629 20.3226239,12.6530642 20.2988338,12.0028073 L20.7746356,11.6054281 C21.167172,11.2682579 21.5121283,10.8708786 21.7857143,10.4253322 C21.2504373,10.6661681 20.6794752,10.8227115 20.0966181,10.8949622 C20.2155685,10.8347532 20.3226239,10.7504607 20.4296793,10.6541263 C20.881691,10.2808307 21.2147522,9.78711715 21.3931778,9.2331946 L21.0244315,9.43790511 C20.5367347,9.70282458 20.0133528,9.87140969 19.4780758,9.95570226 C18.8714286,9.30544536 18.0149854,8.95623334 17.1347522,9.00440052 L17.1347522,9.01644231 L17.1228571,9.01644231 L17.1228571,9.01644231 Z" id="形状"></path>
                </g>
            </g>
        </g>
    </g>
</svg>