<?xml version="1.0" encoding="UTF-8"?>
<svg width="28px" height="28px" viewBox="0 0 28 28" version="1.1" xmlns="http://www.w3.org/2000/svg" xmlns:xlink="http://www.w3.org/1999/xlink">
    <title>bot_ic_1_nor@2x</title>
    <g id="页面-1" stroke="none" stroke-width="1" fill="none" fill-rule="evenodd" opacity="0.6">
        <g id="$avav_Home" transform="translate(-653.000000, -6296.000000)" fill="#0686E1" fill-rule="nonzero">
            <g id="bot" transform="translate(0.000000, 6009.000000)">
                <g id="bot_ic_1_hover备份" transform="translate(653.000000, 287.000000)">
                    <path d="M17.6934881,19.2165703 L19.9575702,8.18363697 C20.15766,7.21261759 19.6184902,6.8305009 19.0024539,7.06893725 L5.69599562,12.3703988 C4.78718247,12.7362167 4.8029762,13.261958 5.54220891,13.5003944 L8.94573032,14.5987953 L16.8467987,9.45628196 C17.2164151,9.20154679 17.5554951,9.34522712 17.2785119,9.59996229 L10.8874694,15.5698425 L10.6410496,19.2002714 C10.9949261,19.2002714 11.1496561,19.0412953 11.3339791,18.8497494 L12.9967946,17.1939847 L16.4466191,19.8207966 C17.0784221,20.1865866 17.5249588,19.9960437 17.6944853,19.2155394 L17.6934881,19.2165703 Z M28,14 C28,21.7339883 21.7339883,28 14,28 C6.26601172,28 0,21.7339883 0,14 C0,6.26601172 6.26601172,0 14,0 C21.7339883,0 28,6.26601172 28,14 Z" id="形状"></path>
                </g>
            </g>
        </g>
    </g>
</svg>