<?xml version="1.0" encoding="UTF-8"?>
<svg width="28px" height="28px" viewBox="0 0 28 28" version="1.1" xmlns="http://www.w3.org/2000/svg" xmlns:xlink="http://www.w3.org/1999/xlink">
    <title>bot_ic_5_hover@2x</title>
    <g id="页面-1" stroke="none" stroke-width="1" fill="none" fill-rule="evenodd">
        <g id="$avav_Home" transform="translate(-821.000000, -6936.000000)" fill="#45C4A1" fill-rule="nonzero">
            <g id="编组-8" transform="translate(-220.000000, 2019.000000)">
                <g id="bot" transform="translate(220.000000, 4630.000000)">
                    <g id="编组备份" transform="translate(821.000000, 287.000000)">
                        <path d="M28,14.3501806 C28,17.4777445 27.1096,20.290312 25.3288,22.7878832 C23.5494,25.2854544 21.2492,27.0130344 18.4296,27.9720233 C18.102,28.0350226 17.8612,27.9916231 17.71,27.8418249 C17.5591948,27.6951328 17.4764764,27.4921451 17.4818,27.2818313 L17.4818,23.3380768 C17.4818,22.1298908 17.1654,21.245101 16.534,20.6851075 C17.1647791,20.6218056 17.7896691,20.5094671 18.403,20.3491113 C18.9546,20.1993131 19.5258,19.9571159 20.1152,19.6211197 C20.6818577,19.3040525 21.1830857,18.8821706 21.5922,18.3779341 C21.987,17.8851398 22.309,17.2313473 22.5582,16.4151567 C22.8074,15.5989662 22.932,14.662377 22.932,13.6039892 C22.932,12.0962066 22.4518,10.8124214 21.4928,9.75403361 C21.9408,8.6200467 21.8932,7.35026134 21.3458,5.94187762 C21.0056,5.82987891 20.5142,5.89987812 19.8702,6.14767523 C19.2860402,6.36711086 18.7243792,6.64231223 18.193,6.96946577 L17.5,7.41746059 C16.3617614,7.09295183 15.1835901,6.92989479 14,6.93306617 C12.8163438,6.93035007 11.6381712,7.09387854 10.5,7.41886058 C10.2467987,7.24350463 9.98862617,7.07543765 9.7258,6.91486639 C9.40380001,6.71466872 8.89560002,6.47527147 8.20259999,6.1952747 C7.51099999,5.91527793 6.98739998,5.83127889 6.63459999,5.94327761 C6.10119999,7.35026137 6.0578,8.6200467 6.50859999,9.75403361 C5.54819998,10.8124214 5.06659999,12.0962066 5.06659999,13.6039892 C5.06659999,14.662377 5.19259999,15.5961662 5.44179999,16.4067568 C5.69099999,17.2159475 6.01019999,17.8697399 6.398,18.3681342 C6.80012938,18.8776304 7.29868694,19.3029217 7.86520001,19.6197198 C8.45460002,19.9557159 9.02720001,20.1993131 9.5788,20.3477113 C10.1318,20.4989096 10.7548,20.6109083 11.4478,20.6851075 C10.962,21.1331023 10.6638,21.7756949 10.5546,22.6100852 C10.2935807,22.7365378 10.0180658,22.8305691 9.7342,22.890082 C9.3921135,22.95722 9.04397997,22.9886549 8.6954,22.9838809 C8.29359999,22.9838809 7.89740001,22.8494825 7.5012,22.5820856 C7.10639999,22.3132886 6.76900001,21.9240931 6.48900001,21.414499 C6.27027234,21.0291016 5.96851042,20.6972151 5.60560001,20.4429102 C5.24720002,20.1937131 4.94620001,20.0439148 4.70260001,19.9949154 L4.33859999,19.9389161 C4.0838,19.9389161 3.90739999,19.9669157 3.80939999,20.0229151 C3.71139999,20.0789145 3.68339999,20.1489137 3.71840001,20.2371126 C3.75957619,20.3320914 3.81479284,20.4203426 3.88220001,20.4989096 C3.9521356,20.5829697 4.0320585,20.6581904 4.12019999,20.722907 L4.24619999,20.815306 C4.515,20.9413045 4.77819999,21.1779018 5.04000001,21.5264978 C5.3018,21.8750937 5.4936,22.1928901 5.614,22.4784868 L5.79600001,22.9082818 C5.95420001,23.3814763 6.22160002,23.7650719 6.59959999,24.0576685 C6.97619999,24.3516651 7.38359999,24.537863 7.8204,24.6176621 C8.2572,24.6988611 8.67999999,24.7436606 9.08740001,24.7492605 C9.49340002,24.7548605 9.83220002,24.7338607 10.0996,24.6834613 L10.5182,24.6092622 C10.5182,25.0824567 10.521,25.6368503 10.528,26.272443 L10.5364,27.2804313 C10.5364,27.5044287 10.458,27.6920266 10.2984,27.8404249 C10.1416,27.9916231 9.89799999,28.0350226 9.5704,27.9720233 C6.7508,27.0130344 4.45060001,25.2840544 2.6712,22.7878832 C0.89039999,20.290312 0,17.4777445 0,14.3501806 C0,11.7462106 0.625800002,9.34663834 1.87740001,7.1472637 C3.08907595,4.99010614 4.84644958,3.18930175 6.9734,1.92532398 C9.09369446,0.648976107 11.5252387,-0.0171595102 14,0.000346212353 C16.475236,-0.0174177051 18.9072991,0.648727338 21.028,1.92532398 C23.1544365,3.18949471 24.9113111,4.99028241 26.1226,7.1472637 C27.3742,9.34523833 28,11.7476106 28,14.3501806 Z" id="路径"></path>
                    </g>
                </g>
            </g>
        </g>
    </g>
</svg>