<?xml version="1.0" encoding="UTF-8"?>
<svg width="28px" height="28px" viewBox="0 0 28 28" version="1.1" xmlns="http://www.w3.org/2000/svg" xmlns:xlink="http://www.w3.org/1999/xlink">
    <title>bot_ic_3_hover@2x</title>
    <g id="页面-1" stroke="none" stroke-width="1" fill="none" fill-rule="evenodd">
        <g id="$avav_Home" transform="translate(-737.000000, -6296.000000)" fill="#738BD8" fill-rule="nonzero">
            <g id="bot" transform="translate(0.000000, 6009.000000)">
                <g id="bot_ic_3_nor备份" transform="translate(737.000000, 287.000000)">
                    <path d="M14,0 C21.7319865,0 28,6.2680135 28,14 C28,21.7319865 21.7319865,28 14,28 C6.2680135,28 0,21.7319865 0,14 C0,6.2680135 6.2680135,0 14,0 Z M16.3721633,8.29617705 L16.1736242,8.4931324 C16.1736242,8.4931324 18.2756096,9.10721599 19.4784215,10.1731319 C19.4784215,10.1731319 17.2830236,8.84071664 14.1533918,8.84071664 C11.0237599,8.84071664 8.82836206,10.1731319 8.82836206,10.1731319 C10.0311739,9.10721599 12.1331594,8.4931324 12.1331594,8.4931324 L11.9346203,8.29617705 C9.96110776,8.33093548 8.17442017,9.686514 8.17442017,9.686514 C6.43365694,13.2913409 6.29803205,16.4697599 6.29281231,17.2532525 L6.29283922,17.3546295 C6.29327787,17.4092635 6.29429275,17.4376425 6.29429275,17.4376425 C7.68147705,19.2170006 9.64031678,19.3781586 10.2020592,19.3861459 L10.300331,19.3860469 C10.3380573,19.3853591 10.3581312,19.3841142 10.3581312,19.3841142 L11.1872659,18.3413615 C9.72753558,18.0285357 8.80501579,16.742474 8.80501579,16.742474 C8.80501579,16.742474 11.0004136,18.225491 14.1533918,18.225491 C17.3063699,18.225491 19.5017677,16.742474 19.5017677,16.742474 C19.5017677,16.742474 18.5792479,18.0285357 17.1195176,18.3413615 L17.9486523,19.3841142 C17.9486523,19.3841142 17.9687262,19.3853591 18.0064526,19.3860469 L18.1047243,19.3861459 C18.6664667,19.3781586 20.6253065,19.2170006 22.0124908,17.4376425 C22.0124908,17.4376425 22.0127445,17.4305477 22.013053,17.4166237 L22.0139443,17.3546295 C22.0184404,16.7946302 21.9623965,13.4762038 20.1323634,9.686514 C20.1323634,9.686514 18.3456758,8.33093548 16.3721633,8.29617705 Z M11.7361085,13.2318732 C12.4951497,13.2318732 13.1140859,13.8922833 13.1023991,14.7033222 C13.1023991,15.502766 12.4951497,16.174744 11.7361085,16.174744 C10.9887268,16.174744 10.3815048,15.502766 10.3815048,14.7033222 C10.3815048,13.8922833 10.9770674,13.2318732 11.7361085,13.2318732 Z M16.6057081,13.2318732 C17.3647492,13.2318732 17.9719986,13.8922833 17.9719986,14.7033222 C17.9719986,15.502766 17.3647492,16.174744 16.6057081,16.174744 C15.8583264,16.174744 15.2511044,15.502766 15.2511044,14.7033222 C15.2511044,13.8922833 15.8466669,13.2318732 16.6057081,13.2318732 Z" id="形状结合"></path>
                </g>
            </g>
        </g>
    </g>
</svg>