<?xml version="1.0" encoding="UTF-8"?>
<svg width="840px" height="566px" viewBox="0 0 840 566" version="1.1" xmlns="http://www.w3.org/2000/svg" xmlns:xlink="http://www.w3.org/1999/xlink">
    <title>bg_Decoration_2@2x</title>
    <g id="页面-1" stroke="none" stroke-width="1" fill="none" fill-rule="evenodd" opacity="0.08">
        <g id="$avav_Home" transform="translate(-1077.000000, -2817.000000)" fill="#D8D8D8">
            <g id="bg_Decoration_2" transform="translate(1077.000000, 2817.000000)">
                <rect id="矩形" x="429" y="142" width="53" height="24"></rect>
                <rect id="矩形备份-8" x="501" y="154" width="12" height="12"></rect>
                <rect id="矩形备份-9" opacity="0.3" x="348" y="130" width="12" height="12"></rect>
                <rect id="矩形备份-10" x="336" y="118" width="12" height="12"></rect>
                <rect id="矩形备份-11" x="137" y="344" width="12" height="12"></rect>
                <rect id="矩形备份-12" x="390" y="263" width="12" height="12"></rect>
                <rect id="矩形备份-13" x="390" y="275" width="12" height="12"></rect>
                <rect id="矩形备份-14" opacity="0.6" x="414" y="243" width="12" height="12"></rect>
                <rect id="矩形备份-24" x="673" y="494" width="12" height="12"></rect>
                <rect id="矩形备份-25" opacity="0.3" x="650" y="560" width="6" height="6"></rect>
                <rect id="矩形备份-15" x="469" y="346" width="12" height="56"></rect>
                <rect id="矩形备份-21" x="662" y="219" width="24" height="24"></rect>
                <rect id="矩形备份-22" opacity="0.3" x="761" y="281" width="24" height="24"></rect>
                <rect id="矩形备份-23" opacity="0.6" x="817" y="166" width="24" height="24"></rect>
                <rect id="矩形备份-23" opacity="0.3" x="557" y="0" width="24" height="24"></rect>
                <rect id="矩形备份-18" x="14" y="406" width="24" height="24"></rect>
                <rect id="矩形备份-20" x="157" y="542" width="24" height="24"></rect>
                <rect id="矩形备份-19" opacity="0.3" x="0" y="465" width="14" height="14"></rect>
                <rect id="矩形备份-16" x="372" y="476" width="24" height="24"></rect>
                <rect id="矩形备份-17" opacity="0.3" x="89" y="186" width="12" height="12"></rect>
            </g>
        </g>
    </g>
</svg>