<?xml version="1.0" encoding="UTF-8"?>
<svg width="1100px" height="1658px" viewBox="0 0 1100 1658" version="1.1" xmlns="http://www.w3.org/2000/svg" xmlns:xlink="http://www.w3.org/1999/xlink">
    <title>bg_right_light@2x</title>
    <defs>
        <filter x="-65.5%" y="-85.9%" width="230.9%" height="271.8%" filterUnits="objectBoundingBox" id="filter-1">
            <feGaussianBlur stdDeviation="200.126556" in="SourceGraphic"></feGaussianBlur>
        </filter>
        <filter x="-110.8%" y="-140.9%" width="321.5%" height="381.9%" filterUnits="objectBoundingBox" id="filter-2">
            <feGaussianBlur stdDeviation="200.126556" in="SourceGraphic"></feGaussianBlur>
        </filter>
    </defs>
    <g id="页面-1" stroke="none" stroke-width="1" fill="none" fill-rule="evenodd" opacity="0.75487264">
        <g id="$avav_Home" transform="translate(-820.000000, -389.000000)">
            <g id="bg'" transform="translate(-509.000132, -363.000000)">
                <g id="bg_right_light" transform="translate(1329.000132, 752.000000)">
                    <path d="M1472.46297,508.765506 C1572.84808,589.81404 1501.71842,778.648465 1313.59069,930.538293 C1125.46297,1082.42812 725.220514,1228.94485 624.835409,1147.89631 C524.450304,1066.84778 761.935851,788.925017 950.063575,637.03519 C1138.1913,485.145362 1372.07787,427.716973 1472.46297,508.765506 Z" id="Ellipse-23" fill="#FF000C" opacity="0.484884353" filter="url(#filter-1)"></path>
                    <path d="M1392.38594,555.287177 C1453.26036,604.418636 1410.1267,718.889687 1296.04439,810.964997 C1181.96207,903.040307 911.344296,979.509681 882.687636,954.046077 C854.030977,928.582472 961.516019,725.119312 1075.59833,633.044002 C1189.68065,540.968692 1331.51153,506.155717 1392.38594,555.287177 Z" id="Ellipse-23" fill="#FF6F29" opacity="0.568155924" filter="url(#filter-2)"></path>
                </g>
            </g>
        </g>
    </g>
</svg>