<?xml version="1.0" encoding="UTF-8"?>
<svg width="336px" height="336px" viewBox="0 0 336 336" version="1.1" xmlns="http://www.w3.org/2000/svg" xmlns:xlink="http://www.w3.org/1999/xlink">
    <title>umate_graph_3@2x</title>
    <defs>
        <linearGradient x1="50%" y1="-82.0581928%" x2="50%" y2="100%" id="linearGradient-1">
            <stop stop-color="#404040" offset="0%"></stop>
            <stop stop-color="#262626" offset="100%"></stop>
        </linearGradient>
        <linearGradient x1="50%" y1="0%" x2="50%" y2="100%" id="linearGradient-2">
            <stop stop-color="#404040" offset="0%"></stop>
            <stop stop-color="#262626" offset="100%"></stop>
        </linearGradient>
    </defs>
    <g id="页面-1" stroke="none" stroke-width="1" fill="none" fill-rule="evenodd">
        <g id="应用分类_umate" transform="translate(-531.000000, -1441.000000)">
            <g id="特性" transform="translate(531.000000, 809.000000)">
                <g id="umate_graph_3" transform="translate(0.000000, 632.000000)">
                    <g id="编组-9" transform="translate(25.000000, 51.000000)">
                        <g id="编组-12">
                            <g id="矩形">
                                <path d="M271.566,38 L271.56658,219 L0,219 L0,38 L271.566,38 Z" id="形状结合" fill="#FFFFFF" opacity="0.04"></path>
                                <polygon fill="url(#linearGradient-1)" points="0 1.10215389e-13 272.02148 1.10215389e-13 272.02148 29.4688525 0 29.4688525"></polygon>
                            </g>
                            <polygon id="Rectangle-6" fill="#0F0F0F" points="14 50 253.504773 50.0797814 253.504773 158.403279 14 158.323497"></polygon>
                            <rect id="矩形" fill="#FFFFFF" x="30" y="67" width="59" height="5"></rect>
                            <rect id="矩形" fill="#FFFFFF" x="30" y="80" width="28" height="5"></rect>
                            <polygon id="Rectangle-7" fill="#201E1E" points="173.912621 167.382514 252.935621 167.382514 252.935621 204.761749 173.912621 204.761749"></polygon>
                            <rect id="Rectangle-6" fill="#201E1E" x="13.5871122" y="167.382514" width="150.447634" height="37.379235"></rect>
                            <path d="M12.8734663,12 C14.460438,12 15.7469327,13.2891702 15.7469327,14.8794421 C15.7469327,16.4697141 14.460438,17.7588843 12.8734663,17.7588843 C11.2864947,17.7588843 10,16.4697141 10,14.8794421 C10,13.2891702 11.2864947,12 12.8734663,12 Z M21.4938653,12 C23.080837,12 24.3673317,13.2891702 24.3673317,14.8794421 C24.3673317,16.4697141 23.080837,17.7588843 21.4938653,17.7588843 C19.9068937,17.7588843 18.620399,16.4697141 18.620399,14.8794421 C18.620399,13.2891702 19.9068937,12 21.4938653,12 Z M30.1142643,12 C31.701236,12 32.9877307,13.2891702 32.9877307,14.8794421 C32.9877307,16.4697141 31.701236,17.7588843 30.1142643,17.7588843 C28.5272927,17.7588843 27.240798,16.4697141 27.240798,14.8794421 C27.240798,13.2891702 28.5272927,12 30.1142643,12 Z" id="browser_controls" fill="#0F0F0F"></path>
                        </g>
                        <g id="编组" transform="translate(212.000000, 147.000000)">
                            <polygon id="Shape" fill="url(#linearGradient-2)" points="0 17.4249201 41.5 0 83 17.4249201 83 58.0427316 82.9517442 59.9901278 82.8101938 61.887508 82.5753488 63.7413259 82.2504264 65.5515815 81.8338178 67.3215016 81.3271318 69.0575399 80.7287597 70.7580831 80.0403101 72.4279712 79.2585659 74.0672045 78.3819186 75.680623 77.4071512 77.2698403 76.332655 78.8332428 75.1552132 80.3756709 73.87 81.8971246 72.4737984 83.3976038 70.9601744 84.878722 69.3243023 86.3404792 67.5629651 87.7828754 65.6681202 89.2059105 63.6333333 90.6095847 61.4537791 91.9922843 59.1214147 93.3540096 56.6281977 94.693147 53.9693023 96.0080831 51.1350775 97.2988179 48.1174806 98.5621246 44.908469 99.7963898 41.5 101 37.9274612 99.5269489 34.5752907 98.0426038 31.4338372 96.5469649 28.4918411 95.0400319 25.7428682 93.5266454 23.1772674 92.0051917 20.7869961 90.4756709 18.5624031 88.9413099 16.4986628 87.4021086 14.5845155 85.8564537 12.8167442 84.3059585 11.1856977 82.750623 9.68815891 81.1904473 8.31447674 79.6222045 7.06143411 78.0491214 5.92420543 76.4663578 4.89796512 74.8755272 3.9778876 73.2734026 3.15914729 71.659984 2.44335271 70.0320447 1.82246124 68.3863578 1.2980814 66.7245367 0.868604651 65.0401278 0.532422481 63.333131 0.287926357 61.6003195 0.138333333 59.8384665 0.0820348837 58.0427316 0.0949031008 57.4409265 0.0965116279 49.6319808"></polygon>
                            <polygon id="Shape" fill="#201E1E" points="7 22.8804776 42 8 77 22.8804776 77 57.3163381 76.9535256 59.1044731 76.8141026 60.8437074 76.5849359 62.538931 76.2676282 64.1934041 75.8621795 65.8103867 75.3669872 67.3915087 74.7836538 68.9416603 74.1089744 70.4608415 73.3429487 71.9523124 72.4823718 73.4193328 71.525641 74.861903 70.4663462 76.2832828 69.3028846 77.6834723 68.0304487 79.0624716 66.6442308 80.4219105 65.1378205 81.7634193 63.5048077 83.0853677 61.7403846 84.3877559 59.838141 85.6705838 57.7884615 86.9338514 55.588141 88.1742987 53.224359 89.3919257 50.6939103 90.5851024 47.9839744 91.7521986 45.0897436 92.8915845 42 94 38.7532051 92.640561 35.7227564 91.2697119 32.8974359 89.8874526 30.2676282 88.4954132 27.8237179 87.0968537 25.5576923 85.690144 23.4599359 84.2769143 21.5224359 82.8587945 19.7355769 81.4341547 18.0945513 80.0062547 16.5897436 78.5718347 15.2147436 77.1325246 13.9647436 75.6866945 12.8333333 74.2343442 11.8141026 72.7738438 10.9022436 71.3051933 10.0945513 69.8235027 9.38782051 68.3304018 8.77724359 66.8226308 8.26121795 65.2969295 7.83974359 63.7516679 7.50961538 62.1835861 7.27083333 60.5910538 7.12339744 58.9691812 7.06891026 57.3163381 7.0849359 54.9511751"></polygon>
                            <polygon id="Shape" fill="#181818" points="7 22.8804776 41 8 41 94 37.8459707 92.640561 34.9021062 91.2697119 32.1575092 89.8874526 29.6028388 88.4954132 27.2287546 87.0968537 25.0274725 85.690144 22.989652 84.2769143 21.1075092 82.8587945 19.3717033 81.4341547 17.7775641 80.0062547 16.3157509 78.5718347 14.9800366 77.1325246 13.7657509 75.6866945 12.6666667 74.2343442 11.6765568 72.7738438 10.7907509 71.3051933 10.0061355 69.8235027 9.31959707 68.3304018 8.7264652 66.8226308 8.22518315 65.2969295 7.81575092 63.7516679 7.49505495 62.1835861 7.26309524 60.5910538 7.11987179 58.9691812 7.06694139 57.3163381 7.08250916 54.9511751"></polygon>
                            <polygon id="Shape" fill="#FD2C2F" fill-rule="nonzero" points="58.1189611 33 63 37.2148894 40.8589892 63 24 50.499058 27.8294657 45.3055391 39.8798827 54.2407816"></polygon>
                        </g>
                    </g>
                    <g id="编组" transform="translate(136.760563, 129.000000)">
                        <path d="M21.2394366,0 L22.2084801,0.035 L23.1495236,0.1325 L24.0662192,0.2925 L24.9610018,0.51375 L25.8436105,0.79625 L26.6933497,1.13125 L27.5138714,1.52 L28.3051758,1.9625 L29.0696975,2.4575 L29.7952627,2.99625 L30.4843062,3.58 L31.1392627,4.21 L31.7528279,4.8825 L32.3213497,5.59 L32.8460453,6.335 L33.3281323,7.12 L33.7590888,7.9325 L34.1376975,8.775 L34.4639584,9.6475 L34.7390888,10.55375 L34.9545671,11.4725 L35.1103931,12.41375 L35.2053497,13.38 L35.2394366,14.375 L35.239,21 L41.2794366,21 L41.5362366,21.0357667 L41.7642366,21.1344333 L41.9586366,21.2886 L42.1086366,21.4884 L42.2046366,21.7227333 L42.2394366,21.9866667 L42.2394366,57.0133333 L42.2046366,57.2772667 L42.1086366,57.5116 L41.9586366,57.7114 L41.7642366,57.8655667 L41.5362366,57.9642333 L41.2794366,58 L1.19943662,58 L0.94263662,57.9642333 L0.71463662,57.8655667 L0.52023662,57.7114 L0.37023662,57.5116 L0.27423662,57.2772667 L0.23943662,57.0133333 L0.23943662,21.9866667 L0.27423662,21.7227333 L0.37023662,21.4884 L0.52023662,21.2886 L0.71463662,21.1344333 L0.94263662,21.0357667 L1.19943662,21 L7.239,21 L7.23943662,14.375 L7.27352358,13.38 L7.3684801,12.41375 L7.52430618,11.4725 L7.73978445,10.55375 L8.01491488,9.6475 L8.34117575,8.775 L8.71978445,7.9325 L9.15074097,7.12 L9.63282792,6.335 L10.1575236,5.59 L10.7260453,4.8825 L11.3396105,4.21 L11.9945671,3.58 L12.6836105,2.99625 L13.4091758,2.4575 L14.1736975,1.9625 L14.9650018,1.52 L15.7855236,1.13125 L16.6352627,0.79625 L17.5178714,0.51375 L18.412654,0.2925 L19.3293497,0.1325 L20.2703931,0.035 L21.2394366,0 Z M21.2394366,5 L20.4810018,5.0325 L19.7493497,5.12375 L19.0408279,5.2725 L18.3530018,5.4775 L17.6810018,5.74 L17.040654,6.0475 L16.4295236,6.40375 L15.8476105,6.80875 L15.2949149,7.25875 L14.7836105,7.74625 L14.3088279,8.2725 L13.8705671,8.83875 L13.4761323,9.43625 L13.1291758,10.06375 L12.8284801,10.72125 L12.5740453,11.41125 L12.3743931,12.1175 L12.2295236,12.845 L12.140654,13.59625 L12.1090018,14.375 L12.109,21 L30.369,21 L30.3698714,14.375 L30.3382192,13.59625 L30.2493497,12.845 L30.1044801,12.1175 L29.9048279,11.41125 L29.6503931,10.72125 L29.3496975,10.06375 L29.002741,9.43625 L28.6083062,8.83875 L28.1700453,8.2725 L27.6952627,7.74625 L27.1839584,7.25875 L26.6312627,6.80875 L26.0493497,6.40375 L25.4382192,6.0475 L24.7978714,5.73875 L24.1258714,5.4775 L23.4380453,5.2725 L22.7295236,5.12375 L21.9978714,5.0325 L21.2394366,5 Z" id="形状结合" fill="#FD2C2F"></path>
                        <polygon id="Shape" fill="#201E1E" points="19.231934 38.9906857 18.800371 38.6758507 18.4094538 38.3204688 18.055596 37.9221548 17.7483614 37.4880642 17.4901408 37.0217744 17.2797389 36.5220931 17.1267193 36.0033309 17.033473 35.459525 17 34.8894829 17.0274957 34.3814537 17.1004191 33.8972756 17.2199656 33.433371 17.3849399 32.9861622 17.5941463 32.5556492 17.8380213 32.1549501 18.1177602 31.7804873 18.435754 31.4322607 18.78483 31.1150406 19.1602061 30.8359823 19.5618825 30.5927007 19.9934456 30.3840033 20.4417451 30.2194305 20.9067812 30.1001748 21.3921402 30.0274288 21.9014085 30 22.4106767 30.0274288 22.8960357 30.1001748 23.3610718 30.2194305 23.8093714 30.3840033 24.2409344 30.5927007 24.6426108 30.8359823 25.0179869 31.1150406 25.3670629 31.4322607 25.6850567 31.7804873 25.9647956 32.1549501 26.2086706 32.5556492 26.417877 32.9861622 26.5828513 33.433371 26.7023978 33.8972756 26.7753212 34.3814537 26.8028169 34.8894829 26.7693439 35.459525 26.6760976 36.0033309 26.523078 36.5220931 26.3126761 37.0217744 26.0544555 37.4880642 25.7472209 37.9221548 25.3933631 38.3204688 25.0024459 38.6758507 24.5708829 38.9906857 26.8028169 46.3380282 17 46.3380282"></polygon>
                    </g>
                    <rect id="矩形备份" x="0" y="0" width="336" height="336"></rect>
                </g>
            </g>
        </g>
    </g>
</svg>