<?xml version="1.0" encoding="UTF-8"?>
<svg width="336px" height="336px" viewBox="0 0 336 336" version="1.1" xmlns="http://www.w3.org/2000/svg" xmlns:xlink="http://www.w3.org/1999/xlink">
    <title>umate_graph_2@2x</title>
    <defs>
        <linearGradient x1="50%" y1="0%" x2="50%" y2="100%" id="linearGradient-1">
            <stop stop-color="#404040" offset="0%"></stop>
            <stop stop-color="#262626" offset="100%"></stop>
        </linearGradient>
        <linearGradient x1="50%" y1="0%" x2="50%" y2="100%" id="linearGradient-2">
            <stop stop-color="#404040" offset="0%"></stop>
            <stop stop-color="#262626" offset="100%"></stop>
        </linearGradient>
    </defs>
    <g id="页面-1" stroke="none" stroke-width="1" fill="none" fill-rule="evenodd">
        <g id="应用分类_umate" transform="translate(-1075.000000, -907.000000)">
            <g id="特性" transform="translate(531.000000, 809.000000)">
                <g id="umate_graph_2" transform="translate(544.000000, 98.000000)">
                    <g id="编组-8" transform="translate(51.285521, 9.000000)">
                        <polygon id="路径" fill="#FFFFFF" opacity="0.04" points="96.7611431 11.2880078 91.7085908 11.4556258 86.9020544 11.7555737 82.3323084 12.1849109 77.9870519 12.7318747 73.8601346 13.3994059 69.9392556 14.172801 65.8646166 15.1373394 62.0236928 16.2077417 58.4041834 17.3751861 54.9937874 18.642613 51.7863547 20.0012007 48.766509 21.4480082 45.7159114 23.1006624 42.8744274 24.8356553 40.2328312 26.6500461 37.7757471 28.5467756 35.5031749 30.522903 33.3997386 32.5784284 31.3977839 34.7956904 29.577266 37.0835285 27.9289592 39.4478238 26.4528636 41.8915171 25.1428287 44.417549 23.9988546 47.0347416 23.0332421 49.6960442 22.2306151 52.4367447 21.597124 55.2597839 21.1296938 58.1681024 20.8344746 61.1734629 20.7145419 64.2817467 20.7668203 67.3076918 20.9913098 70.4159756 21.3880105 73.6124794 21.9692231 76.9030844 22.7380229 80.2936721 23.7067107 83.7901238 24.7861056 87.1130762 26.0500125 90.5154265 27.5076569 94.0030562 29.1682645 97.5818465 31.0379856 101.254738 33.1321963 105.027612 34.934263 108.306455 36.4503362 111.361807 37.6988671 114.214252 38.701382 116.875555 39.580889 119.666247 40.2389816 122.289321 40.6941111 124.756539 40.9616535 127.082606 41.0692854 129.464545 41.0139318 131.740621 40.8078935 133.916713 40.4511704 136.001646 39.9468377 138.077756 39.3194971 140.097993 38.5752989 142.07118 37.7050175 143.994375 36.3919074 146.496882 34.9158118 148.969982 33.267505 151.419556 30.6013073 155.004228 27.6737177 158.630069 21.4618153 165.984674 18.3097361 169.80754 15.1730329 173.845074 13.1618526 176.612241 11.2183267 179.517618 9.3424552 182.564148 8.03242033 184.887274 6.79003985 187.316264 5.61531375 189.854059 4.51131724 192.500658 3.53647909 195.161961 2.66004732 197.964415 1.88509711 200.910962 1.21777889 204.016305 0.704220619 207.092242 0.325971116 210.3505 0.089180777 213.805782 0 217.46103 0.0984063747 219.940011 0.375174303 222.40723 0.833378985 224.865626 1.47302042 227.318141 2.30024901 229.776538 3.27508716 232.155537 4.40983566 234.522773 5.70756973 236.878246 7.17751495 239.230779 8.82582173 241.580371 10.5602341 243.812336 12.4391808 246.020776 14.4688123 248.208632 16.6552789 250.375902 19.0047311 252.525529 22.0122759 255.051561 25.2197087 257.51878 28.6331798 259.924244 32.2649901 262.265014 35.9583043 264.45287 39.8176794 266.546624 43.8431151 268.549217 48.0438372 270.457709 52.2845369 272.213287 56.6513198 273.851238 61.1411107 275.36568 65.7662103 276.756615 70.4159115 277.991695 75.1455679 279.082682 79.9613298 280.023695 84.8631974 280.814734 89.7773657 281.441096 94.7315116 281.893959 99.7256351 282.176263 104.765887 282.288008 108.791322 282.243898 112.816758 282.07628 116.842194 281.785154 120.870705 281.37052 124.905366 280.826497 128.909276 280.158966 132.888583 279.350283 136.846365 278.403388 140.785695 277.318283 144.712724 276.092025 148.569024 274.730497 152.385346 273.216054 156.164766 271.545756 159.907284 269.719602 163.615974 267.731712 167.207807 265.620314 170.744286 263.335417 174.228486 260.874079 177.663484 258.230421 181.046203 255.404441 183.727777 252.984273 186.363222 250.425894 188.95254 247.732244 191.492655 244.89156 193.986641 241.903844 196.4345 238.763213 198.713222 235.622582 200.933516 232.329036 203.095381 228.867872 205.195742 225.242031 207.237675 221.442691 209.215028 217.46103 211.355366 212.761846 213.314268 208.121475 215.088658 203.536977 216.690837 199.008352 218.120805 194.529718 219.381636 190.101075 220.52561 185.551865 221.515825 181.061468 222.349204 176.624003 223.034973 172.242411 223.570058 167.91081 223.960608 163.62626 224.258902 158.409519 224.363459 153.275117 224.283504 148.217171 224.015962 143.235683 223.566982 138.327712 222.933491 133.396216 222.14009 128.549998 221.186778 123.78612 220.073556 119.098698 218.806574 114.490675 217.370456 109.894414 215.799029 105.392255 214.095369 100.978316 212.259475 96.6496555 210.288272 92.4062747 208.172535 88.2011225 205.946091 84.095953 203.61509 80.0907662 201.173382 76.1826213 198.627117 72.3685777 195.948618 68.6045255 193.190165 64.9551592 190.351756 61.4175382 187.430317 57.9857812 184.428922 54.6628288 181.307595 51.3986897 178.137065 48.2609993 174.914256 45.2468168 171.636093 42.3532016 168.305653 39.5801537 164.864505 36.8747412 161.398755 34.3075399 157.911479 31.8785499 154.402677 29.5789493 150.866198 27.4116785 147.225162 25.3267465 143.590277 23.3888477 139.964617 21.6009229 136.342032 19.95415 132.722523 18.4455884 129.004607 17.0428908 125.326669 15.7960485 121.679482 14.7050615 118.066123 13.7669891 114.483516 12.97595 110.820954 12.3143002 107.222971 11.8202683 103.683417 11.4850324 100.196141 11.3085925"></polygon>
                        <g id="编组-5" transform="translate(15.814479, 55.000000)">
                            <polygon id="路径备份-3" fill="url(#linearGradient-1)" points="0 249.504191 38.133019 271 55.2842784 235.298901 63.179799 228.963404 69.7307358 223.363743 75.0934359 218.437294 79.4138231 214.116214 82.8221864 210.337878 85.4436034 207.044881 87.6116143 204.36769 89.7222981 202.113213 91.7912892 200.239701 93.9905695 198.507094 96.116888 197.009328 98.1650329 195.730748 104.127063 192.343814 106.837077 190.673832 109.223973 188.8786 110.657153 187.485208 111.746371 186.128347 112.533317 184.808017 113.096166 183.383313 113.335898 182.104733 113.299417 180.925307 113.080531 180.07466 112.694875 179.323168 112.132026 178.649956 111.376349 178.039369 110.219382 177.475749 108.666336 177.100003 106.612979 176.974755 108.723663 174.996869 110.31319 173.107701 111.464946 171.291595 112.231046 169.527675 112.653183 167.795068 112.752203 166.062461 112.538528 164.314198 111.996526 162.508529 111.084502 160.629799 111.907929 157.639486 112.304008 155.176261 112.356124 153.156626 112.126815 151.502299 111.657774 150.14022 110.975059 149.023419 110.068247 148.104928 108.911279 147.363874 107.452041 146.810692 105.622782 146.461039 103.345328 146.361884 109.640898 139.426237 114.597096 133.607391 118.40675 128.76966 121.241841 124.777357 123.274352 121.520891 124.639782 118.890668 125.478844 116.782315 125.90098 115.101895 126 113.771128 125.848865 112.706514 125.484055 111.855866 125.056707 111.375746 124.514704 111.093937 123.816354 111 122.904331 111.130467 121.726517 111.527088 120.256856 112.236831 118.43802 113.337976 115.748852 115.227144 112.554163 117.711243 105.721802 123.488339 98.4099764 129.902117 91.0825164 136.180208 87.4969599 139.087022 84.2136742 141.565902 80.982504 143.752536 78.2672788 145.286833 70.5124705 149.080825 66.9998759 150.667308 63.7478595 151.98242 60.48542 153.088783 57.1864996 153.939431 53.7885594 154.539581 50.0414443 154.889233 46.1171361 154.967514 41.520536 154.769203 41.197419 152.927003 41.1088224 151.236146 41.2339 149.675756 41.5674401 148.230177 42.5524259 145.787827 43.2664102 144.008252 44.0689912 141.732901 44.7569177 139.306207 45.2832858 136.597704 45.4813252 134.745067 45.5125946 132.85068 45.3666708 130.904106 45.0122844 128.994064 44.3921082 127.08924 43.4905075 125.184416 42.6618687 123.858867 41.6247673 122.548974 40.3531456 121.249519 38.8313687 119.96572 37.7473632 119.553443 36.8666088 119.438631 36.1265666 119.558661 35.4855441 119.897877 34.912272 120.487589 34.4067502 121.385205 33.9741903 122.695098 33.1194937 126.990084 31.7853332 133.670015 30.8993672 137.510976 29.7945154 141.665058 28.5020474 145.81914 26.9854821 149.905379 25.8180916 152.566913 24.5516814 155.035357 23.1810398 157.321146 22.2742276 158.98591 21.4560119 161.042076 20.7420275 163.567925 20.2208711 166.130304 19.7830996 168.979712 19.4443479 172.137023 19.1212309 176.922568 18.9544609 182.000359 18.9127683 187.1199 18.9544609 192.140285 19.1316541 201.533938 19.1525003 209.153234 18.9857302 212.180078 18.6990942 213.97009 17.8548207 216.469846 16.0411962 220.603053 12.8152376 226.985518 7.66100012 236.34264"></polygon>
                            <polygon id="路径备份-4" fill="#0F0F0F" points="41.9601594 145.196648 42.1573705 145.01035 42.4501992 145 42.6653386 145.170773 42.6772908 145.424345 42.0318725 147.276972 41.4880478 149.595343 41.0697211 152.457082 40.998008 153.181573 40.938247 153.926763 40.8426295 155.484419 40.8067729 156.296884 40.7828685 157.124873 40.7649402 158.853302 40.7649402 159.748566 40.7828685 160.669704 40.7948207 161.244122 40.812749 161.80819 40.8426295 162.361908 40.87251 162.905276 40.8904382 163.179548 40.9322709 163.728091 40.9561753 164.007537 41.0099602 164.56643 41.0697211 165.135673 41.1055777 165.430645 41.2191235 166.341433 41.3027888 166.97795 41.3984064 167.650692 41.559761 168.721903 41.7390438 169.891439 42.0438247 171.785465 42.1992032 172.830802 42.3426295 173.839915 42.4741036 174.807627 42.9223108 179.408145 43 181.566093 42.9760956 183.713691 42.8565737 185.887164 42.623506 188.262459 42.5039841 189.219822 42.438247 189.706266 42.2948207 190.715379 42.1513944 190.937901 41.8705179 191 41.6135458 190.875802 41.5358566 190.63258 41.9183267 187.672517 42.1454183 185.095399 42.2410359 182.585555 42.1932271 180.127461 42.0258964 177.638317 41.7151394 174.869727 41.5836653 173.907189 41.440239 172.908426 41.3625498 172.396108 41.2011952 171.335246 40.8545817 169.182473 40.687251 168.075037 40.5856574 167.381595 40.4960159 166.724378 40.4183267 166.093036 40.3406375 165.487569 40.2749004 164.902801 40.2211155 164.333558 40.1673307 163.774665 40.1494024 163.495219 40.1075697 162.941501 40.0776892 162.387783 40.0478088 161.82889 40.0298805 161.264822 40.0239044 160.975025 40.0179283 160.680054 40 159.753741 40 158.848127 40 157.963213 40.0179283 157.098999 40.0418327 156.255484 40.059761 155.846664 40.0956175 155.0342 40.2031873 153.476544 40.2749004 152.731353 40.6992032 149.667792 41.2729084 147.183823"></polygon>
                            <rect id="矩形" fill="#201E1E" x="48" y="0" width="103" height="196"></rect>
                            <g id="Clipped" transform="translate(55.000000, 7.000000)" fill="#0F0F0F">
                                <rect id="矩形" x="0" y="0" width="90" height="161"></rect>
                            </g>
                            <rect id="矩形" fill="#181818" x="63" y="63" width="72" height="66"></rect>
                            <rect id="矩形" fill="#FFFFFF" x="77" y="96" width="21" height="6"></rect>
                            <rect id="矩形" fill="#FFFFFF" x="77" y="83" width="46" height="6"></rect>
                            <polygon id="椭圆形" fill="#0F0F0F" points="106.5 180 106.380682 181.276337 106.0625 182.450567 105.545455 183.534036 104.846591 184.515397 104.017045 185.349271 103.034091 186.047002 101.948864 186.563209 100.778409 186.880875 99.5 187 98.2215909 186.880875 97.0511364 186.563209 95.9659091 186.047002 94.9829545 185.349271 94.1534091 184.515397 93.4545455 183.534036 92.9375 182.450567 92.6193182 181.276337 92.5 180 92.6193182 178.723663 92.9375 177.555105 93.4545455 176.471637 94.1534091 175.484603 94.9829545 174.650729 95.9659091 173.958671 97.0511364 173.442464 98.2215909 173.119125 99.5 173 100.778409 173.119125 101.948864 173.442464 103.034091 173.958671 104.017045 174.650729 104.846591 175.484603 105.545455 176.471637 106.0625 177.555105 106.380682 178.723663"></polygon>
                            <polygon id="路径备份-7" fill="url(#linearGradient-2)" points="119.470812 160.383164 115.383009 148.810161 112.161841 138.888955 109.702895 130.452804 107.901756 123.334965 106.659231 117.389536 105.902231 112.460198 105.536782 108.421892 105.495017 105.144351 105.714286 102.518149 106.142383 100.428652 106.64879 98.9644404 107.155197 98.0108791 107.640721 97.4324895 108.115804 97.1250572 108.669198 97 109.264357 97.07295 109.932606 97.3751716 110.705268 97.9744041 111.592786 98.9227546 112.584718 100.225434 113.696725 101.965813 115.23683 104.737915 116.881348 108.088406 118.463218 111.60043 120.039867 115.326092 122.958234 122.667993 125.422402 129.103229 128.090176 135.757314 130.716184 141.780903 133.300427 147.20526 135.842905 152.082491 135.634077 140.050945 131.671571 142.968947 125.667774 128.816639 130.183673 124.731437 133.754627 121.855121 136.526815 119.947998 138.651637 118.791219 140.264832 118.197197 141.481253 118.014822 142.400095 118.134669 143.11533 118.494208 143.679165 119.114284 148.821547 127.00852 150.810631 126.305073 152.570005 125.961166 154.136213 125.91948 155.55102 126.153963 156.850973 126.648981 158.062174 127.409745 159.195064 128.477942 160.265306 129.895258 161.262458 131.72943 162.170859 134.063831 162.974846 136.976622 165.19364 137.654015 167.135738 138.508573 168.832463 139.535084 170.31514 140.73876 171.59421 142.114389 172.685335 143.682815 173.593735 145.46488 174.314191 147.481428 174.83626 149.774144 175.144281 152.369081 175.833412 159.705771 176.981965 168.444143 177.707641 173.034785 178.511628 177.599373 179.404366 182.091012 180.33887 186.191846 181.367347 190.089462 182.374941 193.241946 183.152824 195.237651 183.8785 196.712284 184.541528 197.754427 187.485999 201.943844 192.383009 209.530648 200 221.942576 172.178927 245 164.180826 237.272506 157.66018 231.3375 152.408163 226.903179 148.231609 223.71422 144.963455 221.53093 142.43664 220.15009 139.695776 218.753618 136.605126 216.971552 133.519696 214.960215 130.335074 212.615393 127.265306 210.036088 124.326056 207.170193 122.498813 205.122381 120.822971 202.970355 119.288087 200.714115 117.941149 198.348449 116.8187 195.894201 115.92074 193.335739 114.573802 188.442876 113.399146 183.768862 111.16991 175.087808 109.948268 171.200613 108.658757 168.011654 107.609397 166.057635 106.476507 164.49963 105.265306 163.275112 103.250119 161.816111 102.002373 160.659332 101.313242 159.752667 101.015662 159.028377 101 158.434356 101.214048 157.902862 102.028477 156.94409 103.015187 156.235433 104.210726 155.761258 105.662079 155.537197 107.437114 155.599725 109.619364 156.016583 112.287138 156.876351 115.534409 158.293666"></polygon>
                            <polygon id="路径备份-8" fill="#0F0F0F" points="119.222304 160 119.475628 160.026366 119.635894 160.226745 120.401034 162.916051 121.393648 166.443788 121.920975 168.336849 122.536189 170.572664 123.104874 172.671377 123.627031 174.632989 124.102659 176.452225 124.531758 178.13436 124.764402 179.07298 125.074594 180.338536 125.312408 181.345708 125.519202 182.279055 125.648449 182.853828 125.762186 183.396963 125.865583 183.908458 125.958641 184.383042 126 184.609787 125.948301 184.857625 125.736337 185 125.488183 184.947269 125.348597 184.731069 125.255539 184.224847 125.064254 183.286227 124.883309 182.453069 124.676514 181.546087 124.381832 180.301624 124.118168 179.225902 123.756278 177.770513 123.435746 176.520776 123.089365 175.197216 122.624077 173.441257 121.905465 170.778317 121.109306 167.888631 120.106352 164.30289 119 160.416579 119.025849 160.163468"></polygon>
                            <polygon id="路径备份-9" fill="#0F0F0F" points="125.179673 128 125.424229 128 125.59392 128.184248 126.147913 129.631909 127.345735 132.627252 128.912886 136.4754 132.216878 144.487548 135.056715 151.331039 135.336207 151.999595 135.041742 134.385503 135.116606 134.164406 135.30127 134.048593 135.356171 134.038064 135.565789 134.117028 135.67559 134.311804 135.680581 134.36971 136 153.668354 135.925136 153.894716 135.750454 154 135.550817 153.978943 135.391107 153.805224 129.826225 140.391982 127.350726 134.353918 126.117967 131.29014 125.339383 129.326584 125 128.436931 125.004991 128.178984"></polygon>
                            <polygon id="路径备份-10" fill="#0F0F0F" points="149.298077 127 149.5 127.079248 149.605769 127.274725 149.610577 127.33284 150 151.656593 149.913462 151.89962 149.697115 152 149.495192 151.926036 149.389423 151.730558 149.384615 151.66716 149 127.343407 149.081731 127.105664"></polygon>
                            <polygon id="路径备份-11" fill="#0F0F0F" points="162.69 137 162.895 137.08089 163 137.273003 163 137.33367 162.64 151.681496 162.54 151.908999 162.31 152 162.105 151.914055 162 151.721941 162 151.66633 162.36 137.313448 162.46 137.091001"></polygon>
                            <polygon id="形状" fill="#FD2C2F" points="99.5 32 96.8231027 32.1849888 94.2985491 32.6964286 91.9100167 33.5343192 89.6466239 34.6714565 87.5845424 36.0588728 85.7128906 37.7128906 84.0588728 39.5845424 82.6714565 41.6466239 81.5343192 43.9100167 80.6964286 46.2985491 80.1849888 48.8231027 80 51.5 80.1849888 54.1768973 80.6964286 56.7014509 81.5343192 59.0899833 82.6714565 61.3533761 84.0588728 63.4154576 85.7128906 65.2871094 87.5845424 66.9411272 89.6466239 68.3285435 91.9100167 69.4656808 94.2985491 70.3035714 96.8231027 70.8150112 99.5 71 102.176897 70.8150112 104.701451 70.3035714 107.089983 69.4656808 109.353376 68.3285435 111.415458 66.9411272 113.287109 65.2871094 114.941127 63.4154576 116.328544 61.3533761 117.465681 59.0899833 118.303571 56.7014509 118.815011 54.1768973 119 51.5 118.815011 48.8231027 118.303571 46.2985491 117.465681 43.9100167 116.328544 41.6466239 114.941127 39.5845424 113.287109 37.7128906 111.415458 36.0588728 109.353376 34.6714565 107.089983 33.5343192 104.701451 32.6964286 102.176897 32.1849888"></polygon>
                            <polyline id="路径-5" stroke="#FFFFFF" stroke-width="4" points="90.5454545 50.1969697 97.6363636 56.5 109.454545 43.5"></polyline>
                        </g>
                        <polygon id="£" fill="#181818" points="232.019195 49.50375 232.019195 42.7041797 208.082789 42.7041797 209.000191 41.5409375 209.78568 40.3357227 210.448248 39.079541 210.990895 37.7723926 211.410621 36.4232715 211.713424 35.0201855 211.896305 33.5571387 211.959264 32.0281348 211.875318 30.2682812 211.620484 27.7439258 223.519732 27.7439258 223.519732 23.2558496 210.870973 23.2558496 210.19941 19.253457 209.869625 16.4143066 209.782682 14.4835645 209.863629 13.1704199 210.094479 12.0011816 210.466236 10.9578613 210.972906 10.0224707 211.620484 9.18001953 212.352008 8.43650391 213.182467 7.83689453 214.117857 7.37819336 215.119205 7.06339844 216.252467 6.86552734 217.535631 6.79957031 218.956705 6.86552734 220.170914 7.06339844 221.202242 7.37219727 222.08067 7.78592773 222.824186 8.2955957 223.450777 8.90719727 223.978434 9.63572266 224.446129 10.5801074 224.844869 11.7943164 225.153668 13.3233203 225.354537 15.2300781 233.380309 15.2300781 233.284371 13.4042676 233.017545 11.6803906 232.57983 10.0464551 231.968229 8.46948242 231.191734 6.98245117 230.250348 5.57636719 229.344938 4.50006836 228.370572 3.5496875 227.321256 2.71623047 226.19399 1.99669922 224.979781 1.38509766 223.735592 0.902412109 222.392467 0.515664062 220.938414 0.233847656 219.370436 0.0599609375 217.670543 0 215.778775 0.071953125 214.030914 0.2878125 212.414967 0.644580078 210.918941 1.12726563 209.527848 1.74186523 208.232691 2.47938477 207.027477 3.34881836 205.906207 4.35016602 204.814918 5.56737305 203.903512 6.84154297 203.162994 8.17867187 202.584371 9.58775391 202.167643 11.0777832 201.912809 12.660752 201.825865 14.3486523 201.882828 15.7757227 202.086695 17.6674902 202.482438 20.1258887 203.118023 23.2558496 197.814479 23.2558496 197.814479 27.7439258 204.071402 27.7439258 204.383199 29.8125781 204.557086 31.470498 204.614049 32.7746484 204.55109 34.1747363 204.365211 35.4638965 204.065406 36.648125 203.654674 37.7454102 203.136012 38.75875 202.500426 39.7091309 201.750914 40.5965527 200.872486 41.4240137 199.859147 42.1945117 198.698902 42.9080469 198.698902 49.50375"></polygon>
                        <polygon id="€" fill="#181818" points="247.310885 113.695732 248.666002 113.611787 249.925182 113.365947 251.097418 112.964209 252.197701 112.403574 253.235025 111.678047 254.212389 110.766641 255.057838 109.726318 255.774371 108.545088 256.361988 107.207959 256.814693 105.693945 252.866266 105.693945 252.470523 106.794229 251.99983 107.696641 251.46318 108.431162 250.857574 109.021777 250.120055 109.543438 249.289596 109.918193 248.351207 110.152041 247.277906 110.232988 246.045709 110.143047 244.9844 109.897207 244.066998 109.507461 243.269518 108.979805 242.579967 108.308242 241.989352 107.477783 241.566627 106.656318 241.218854 105.699941 240.952027 104.584668 250.389879 104.584668 251.058443 102.366113 240.71818 102.366113 240.685201 101.478691 240.685201 101.256836 240.71818 100.147559 251.694029 100.147559 252.362594 97.9290039 240.985006 97.9290039 241.323785 96.6788184 241.7615 95.6085156 242.289156 94.7031055 242.903756 93.9296094 243.584313 93.3150098 244.336822 92.8383203 245.179273 92.4935449 246.117662 92.2836816 247.175973 92.2147266 248.237281 92.2746875 249.154684 92.4635645 249.95816 92.7693652 250.656705 93.1890918 251.304283 93.7377344 251.858922 94.4302832 252.326617 95.2907227 252.698375 96.3490332 256.580846 96.3490332 256.254059 94.9759277 255.786363 93.7587207 255.186754 92.6794238 254.449234 91.7200488 253.567809 90.8686035 252.713365 90.2360156 251.792965 89.7143555 250.794615 89.303623 249.709322 89.0008203 248.53109 88.8149414 247.24193 88.7519824 245.754898 88.8269336 244.411773 89.0517871 243.197564 89.4175488 242.094283 89.9152246 241.089938 90.5508105 240.175533 91.3243066 239.345074 92.2477051 238.694498 93.1681055 238.133863 94.1874414 237.669166 95.311709 237.300406 96.5558984 237.036578 97.9290039 234.458258 97.9290039 233.789693 100.147559 236.802731 100.147559 236.769752 101.085947 236.766754 101.256836 236.802731 102.366113 234.458258 102.366113 233.789693 104.584668 237.036578 104.584668 237.375357 106.134658 237.852047 107.52875 238.466647 108.790928 239.210162 109.930186 240.031627 110.916543 240.949029 111.741006 241.965367 112.421563 243.092633 112.958213 244.345816 113.356953 245.745904 113.605791"></polygon>
                        <path d="M263.394059,63.5307324 L263.394059,59.6722461 L265.019,59.4953613 L266.476051,59.2015527 L267.783199,58.7998145 L268.952438,58.2991406 L270.001754,57.6965332 L270.949137,56.9740039 L271.731627,56.1705273 L272.373209,55.2861035 L272.873883,54.3057422 L273.239645,53.2234473 L273.470494,52.0212305 L273.548443,50.6811035 L273.473492,49.499873 L273.257633,48.4175781 L272.912857,47.4132324 L272.430172,46.4808398 L271.812574,45.6084082 L271.045074,44.7899414 L270.112682,44.0254395 L268.997408,43.3119043 L268.730582,43.1799902 L268.58068,43.1170312 L263.394059,41.1623047 L263.394059,31.5145898 L264.467359,31.718457 L265.330797,32.0302539 L266.020348,32.4349902 L266.56899,32.9086816 L267.042682,33.508291 L267.441422,34.2518066 L267.759215,35.172207 L267.990064,36.2964746 L272.978814,36.2964746 L272.676012,34.6325586 L272.262281,33.2084863 L271.746617,31.9942773 L271.138014,30.9629492 L270.439469,30.0935156 L269.653981,29.3649902 L268.71859,28.7174121 L267.645289,28.1717676 L266.413092,27.7340527 L265.00401,27.4102637 L263.394059,27.2183887 L263.394059,23.6207324 L260.503941,23.6207324 L260.503941,27.2183887 L258.968941,27.3892773 L257.592838,27.686084 L256.354645,28.0938184 L255.242369,28.6124805 L254.24402,29.2330762 L253.350602,29.9376172 L252.610084,30.7111133 L252.010475,31.5535645 L251.539781,32.4769629 L251.198004,33.4933008 L250.988141,34.6145703 L250.916188,35.8557617 L250.985143,37.0549805 L251.198004,38.1552637 L251.542779,39.1626074 L252.022467,40.097998 L252.643063,40.9674316 L253.413561,41.7739062 L254.348951,42.5294141 L255.470221,43.2249609 L260.503941,45.0657617 L260.503941,55.3280762 L259.487604,55.1332031 L258.639156,54.8423926 L257.934615,54.4676367 L257.352994,54.0149316 L256.849322,53.4183203 L256.414606,52.6598145 L256.05484,51.7154297 L255.776022,50.5431934 L255.602135,49.1011328 L250.523443,49.1011328 L250.745299,50.968916 L251.102066,52.5908594 L251.581754,53.9909473 L252.175367,55.1991602 L252.870914,56.2394824 L253.674391,57.1269043 L254.468873,57.7804785 L255.380279,58.3441113 L256.420602,58.8208008 L257.607828,59.2075488 L258.962945,59.4953613 L260.503941,59.6722461 L260.503941,63.5307324 L263.394059,63.5307324 Z M260.503941,40.0680176 L259.106852,39.4594141 L258.045543,38.8538086 L257.257057,38.2541992 L256.69942,37.6605859 L256.324664,37.0729687 L256.108805,36.4763574 L256.03985,35.8557617 L256.114801,34.8813965 L256.333658,34.0689258 L256.68443,33.3913672 L257.164117,32.8217383 L257.790709,32.3480469 L258.483258,31.9762891 L259.373678,31.6764844 L260.503941,31.4726172 L260.503941,40.0680176 Z M263.394059,55.3280762 L263.394059,46.1180762 L263.873746,46.2949609 L265.255846,46.8585937 L266.320152,47.4552051 L267.123629,48.0758008 L267.708248,48.7173828 L268.106988,49.3889453 L268.343834,50.0964844 L268.427779,50.8549902 L268.34983,51.7034375 L268.130973,52.4499512 L267.771207,53.1125195 L267.264537,53.7031348 L266.586979,54.2337891 L265.666578,54.7194727 L264.608268,55.0852344 L263.394059,55.3280762 Z" id="$" fill="#181818"></path>
                    </g>
                    <g id="编组" transform="translate(14.000000, 25.000000)">
                        <polygon id="路径" fill="#FD2C2F" points="21.1063078 108.621996 35.3531194 108.621996 1.31899278 149 12.6637017 120.56781 0 120.56781 12.6637017 87 37.2 87"></polygon>
                        <path d="M148.1,74.4999211 C148.099972,74.6785539 148.195245,74.8436325 148.349932,74.9329733 C148.504618,75.0223141 148.695217,75.0223441 148.849932,74.9330521 C149.004646,74.84376 149.099972,74.6787114 149.1,74.5000786 C149.100043,74.2239363 148.876221,74.0000435 148.600079,74 C148.323936,73.9999565 148.100044,74.2237788 148.1,74.4999211 L148.1,74.4999211 Z" id="路径" fill="#FD2C2F"></path>
                        <path d="M145.1,0.71046633 C145.1,0.87037136 145.245129,1 145.424154,1 C145.603179,1 145.748308,0.87037136 145.748308,0.71046633 C145.748308,0.550561299 145.603179,0.42093266 145.424154,0.42093266 C145.245129,0.42093266 145.1,0.550561299 145.1,0.71046633 Z M145.424239,0.71046633 L145.524239,0 L145.424239,0.71046633 Z" id="形状" fill="#000000" fill-rule="nonzero"></path>
                        <path d="M144.1,1 C144.099965,1.26522712 144.205311,1.51960129 144.392855,1.70714524 C144.580399,1.89468918 144.834773,2.00003484 145.1,2 C145.365227,2.0000348 145.619601,1.89468913 145.807145,1.70714519 C145.994689,1.51960125 146.100035,1.26522709 146.1,1 C146.100035,0.73477279 145.994689,0.480398672 145.807145,0.292854763 C145.619601,0.105310853 145.365227,-3.48003118e-05 145.1,0 C144.547579,0 144.1,0.447710337 144.1,1 L144.1,1 Z" id="路径" fill="#000000" fill-rule="nonzero"></path>
                        <path d="M145.1,1.5 C145.1,1.77614237 145.323858,2 145.6,2 C145.876142,2 146.1,1.77614237 146.1,1.5 C146.1,1.22385763 145.876142,1 145.6,1 C145.323858,1 145.1,1.22385763 145.1,1.5 Z" id="路径" fill="#000000" fill-rule="nonzero"></path>
                        <path d="M145.1,0.746587839 C145.099985,0.837109018 145.151422,0.920761653 145.234935,0.966034596 C145.318449,1.01130754 145.421351,1.01132275 145.504879,0.966074503 C145.588408,0.920826255 145.639873,0.837188832 145.639888,0.746667654 C145.639911,0.606734084 145.519072,0.493277665 145.369987,0.493255624 C145.220901,0.493233584 145.100024,0.60665427 145.1,0.746587839 L145.1,0.746587839 Z M145.369987,0.746587839 L145.469987,0 L145.369987,0.746587839 Z" id="形状" fill="#000000" fill-rule="nonzero"></path>
                    </g>
                    <rect id="矩形备份" x="0" y="0" width="336" height="336"></rect>
                </g>
            </g>
        </g>
    </g>
</svg>