<?xml version="1.0" encoding="UTF-8"?>
<svg width="336px" height="336px" viewBox="0 0 336 336" version="1.1" xmlns="http://www.w3.org/2000/svg" xmlns:xlink="http://www.w3.org/1999/xlink">
    <title>umate_graph_1@2x</title>
    <defs>
        <linearGradient x1="50%" y1="0%" x2="50%" y2="100%" id="linearGradient-1">
            <stop stop-color="#404040" offset="0%"></stop>
            <stop stop-color="#262626" offset="100%"></stop>
        </linearGradient>
        <linearGradient x1="50%" y1="0%" x2="50%" y2="100%" id="linearGradient-2">
            <stop stop-color="#404040" offset="0%"></stop>
            <stop stop-color="#262626" offset="100%"></stop>
        </linearGradient>
        <linearGradient x1="50%" y1="0%" x2="50%" y2="100%" id="linearGradient-3">
            <stop stop-color="#404040" offset="0%"></stop>
            <stop stop-color="#262626" offset="100%"></stop>
        </linearGradient>
        <linearGradient x1="50%" y1="0%" x2="50%" y2="100%" id="linearGradient-4">
            <stop stop-color="#404040" offset="0%"></stop>
            <stop stop-color="#262626" offset="100%"></stop>
        </linearGradient>
    </defs>
    <g id="页面-1" stroke="none" stroke-width="1" fill="none" fill-rule="evenodd">
        <g id="应用分类_umate" transform="translate(-531.000000, -907.000000)">
            <g id="特性" transform="translate(531.000000, 809.000000)">
                <g id="umate_graph_1" transform="translate(0.000000, 98.000000)">
                    <g id="编组" transform="translate(51.000000, 33.000000)">
                        <polygon id="矩形" fill="#FFFFFF" opacity="0.04" points="30.5 0 192 0 192 149 0 149 0 30.5"></polygon>
                        <rect id="矩形" fill="#201E1E" x="36" y="42" width="198" height="212"></rect>
                        <rect id="矩形" fill="#0F0F0F" x="95" y="59" width="54" height="19"></rect>
                        <rect id="矩形" fill="#0F0F0F" x="160" y="59" width="54" height="19"></rect>
                        <polygon id="路径" fill="#0F0F0F" fill-rule="nonzero" points="214.433453 90.8888786 114.476343 90.8888786 114.476343 95.8859736 214.433453 95.8859736"></polygon>
                        <polygon id="路径" fill="#0F0F0F" fill-rule="nonzero" points="214.572649 101.094078 152.395246 101.094078 152.395246 106.091173 214.572649 106.091173"></polygon>
                        <rect id="矩形" fill="url(#linearGradient-1)" x="66" y="149" width="34" height="86"></rect>
                        <rect id="矩形" fill="url(#linearGradient-2)" x="118" y="173" width="34" height="62"></rect>
                        <rect id="矩形" fill="url(#linearGradient-3)" x="170" y="184" width="34" height="51"></rect>
                        <polygon id="路径-2" fill="#201E1E" points="30.5 0 30.5 30 0 30"></polygon>
                        <path d="M117.797297,121 C117.797297,121 128.614094,130.053461 150.247688,148.160384 L163.852952,136.719595 L199.412162,166.094595" id="路径-3" stroke="#FFFFFF" stroke-width="6"></path>
                        <polyline id="路径-4" stroke="#FFFFFF" stroke-width="6" points="201 152.121622 201 168 185.439189 168"></polyline>
                    </g>
                    <g id="编组" transform="translate(54.500000, 224.000000)">
                        <polygon id="Shape" fill="url(#linearGradient-4)" points="96 48 95.8334694 51.9869388 95.3632653 55.8318367 94.6040816 59.5591837 93.5510204 63.1738776 92.2138776 66.7053061 90.6318367 70.075102 88.8097959 73.2832653 86.7379592 76.3493878 84.4359184 79.2489796 81.9428571 81.9428571 79.2489796 84.4359184 76.3493878 86.7379592 73.2832653 88.8097959 70.075102 90.6318367 66.7053061 92.2138776 63.1738776 93.5510204 59.5591837 94.6040816 55.8318367 95.3632653 51.9869388 95.8334694 48 96 44.0130612 95.8334694 40.1681633 95.3632653 36.4408163 94.6040816 32.8261224 93.5510204 29.2946939 92.2138776 25.924898 90.6318367 22.7167347 88.8097959 19.6506122 86.7379592 16.7510204 84.4359184 14.0571429 81.9428571 11.5640816 79.2489796 9.26204082 76.3493878 7.19020408 73.2832653 5.36816327 70.075102 3.78612245 66.7053061 2.44897959 63.1738776 1.39591837 59.5591837 0.636734694 55.8318367 0.166530612 51.9869388 0 48 0.166530612 44.0130612 0.636734694 40.1681633 1.39591837 36.4408163 2.44897959 32.8261224 3.78612245 29.2946939 5.36816327 25.924898 7.19020408 22.7167347 9.26204082 19.6506122 11.5640816 16.7510204 14.0571429 14.0571429 16.7510204 11.5640816 19.6506122 9.26204082 22.7167347 7.19020408 25.924898 5.36816327 29.2946939 3.78612245 32.8261224 2.44897959 36.4408163 1.39591837 40.1681633 0.636734694 44.0130612 0.166530612 48 0 51.9869388 0.166530612 55.8318367 0.636734694 59.5591837 1.39591837 63.1738776 2.44897959 66.7053061 3.78612245 70.075102 5.36816327 73.2832653 7.19020408 76.3493878 9.26204082 79.2489796 11.5640816 81.9428571 14.0571429 84.4359184 16.7510204 86.7379592 19.6506122 88.8097959 22.7167347 90.6318367 25.924898 92.2138776 29.2946939 93.5510204 32.8261224 94.6040816 36.4408163 95.3632653 40.1681633 95.8334694 44.0130612"></polygon>
                        <polygon id="Shape" fill="#0F0F0F" points="87.7419355 48.516129 87.6039553 51.7734479 87.2245096 54.9174258 86.5986708 57.9628465 85.7412222 60.9146377 84.6472362 63.8023667 83.3561355 66.5570433 81.8679202 69.1786675 80.1727346 71.682023 78.2902902 74.0523261 76.2550819 76.2550819 74.0523261 78.2902902 71.682023 80.1727346 69.1786675 81.8679202 66.5570433 83.3561355 63.8023667 84.6472362 60.9146377 85.7412222 57.9628465 86.5986708 54.9174258 87.2245096 51.7734479 87.6039553 48.516129 87.7419355 45.2588102 87.6039553 42.1148322 87.2245096 39.0694116 86.5986708 36.1176204 85.7412222 33.2298914 84.6472362 30.4752148 83.3561355 27.8535905 81.8679202 25.350235 80.1727346 22.9799319 78.2902902 20.7771762 76.2550819 18.7419679 74.0523261 16.8595234 71.682023 15.1643378 69.1786675 13.6761225 66.5570433 12.3850219 63.8023667 11.2910358 60.9146377 10.4335873 57.9628465 9.80774842 54.9174258 9.4283028 51.7734479 9.29032258 48.516129 9.4283028 45.2588102 9.80774842 42.1148322 10.4335873 39.0694116 11.2910358 36.1176204 12.3850219 33.2298914 13.6761225 30.4752148 15.1643378 27.8535905 16.8595234 25.350235 18.7419679 22.9799319 20.7771762 20.7771762 22.9799319 18.7419679 25.350235 16.8595234 27.8535905 15.1643378 30.4752148 13.6761225 33.2298914 12.3850219 36.1176204 11.2910358 39.0694116 10.4335873 42.1148322 9.80774842 45.2588102 9.4283028 48.516129 9.29032258 51.7734479 9.4283028 54.9174258 9.80774842 57.9628465 10.4335873 60.9146377 11.2910358 63.8023667 12.3850219 66.5570433 13.6761225 69.1786675 15.1643378 71.682023 16.8595234 74.0523261 18.7419679 76.2550819 20.7771762 78.2902902 22.9799319 80.1727346 25.350235 81.8679202 27.8535905 83.3561355 30.4752148 84.6472362 33.2298914 85.7412222 36.1176204 86.5986708 39.0694116 87.2245096 42.1148322 87.6039553 45.2588102"></polygon>
                        <path d="M46.9675926,75 L46.9675926,68.2755556 L44.662037,67.9969444 L42.6759259,67.5530556 L40.9722222,66.9627778 L39.5092593,66.245 L38.1157407,65.3194444 L36.9398148,64.2805556 L35.9537037,63.1283333 L35.1481481,61.8580556 L34.5092593,60.4886111 L34.0185185,59.0152778 L33.6805556,57.4380556 L33.5,55.7427778 L41.3148148,55.7427778 L41.5787037,57.2633333 L42.0185185,58.6138889 L42.4444444,59.4355556 L43.0138889,60.1627778 L43.7314815,60.8097222 L44.5509259,61.315 L45.6157407,61.7258333 L46.9675926,62.0327778 L46.9675926,51.6533333 L44.1851852,51.1008333 L41.8935185,50.4208333 L40.0185185,49.6322222 L38.6898148,48.8625 L37.5740741,47.9936111 L36.6527778,47.0208333 L35.9074074,45.9394444 L35.337963,44.7636111 L34.9166667,43.4130556 L34.6481481,41.8641667 L34.5555556,40.0838889 L34.662037,38.5397222 L34.9583333,37.1136111 L35.4351852,35.7772222 L36.0972222,34.5258333 L36.9212963,33.3783333 L37.9027778,32.3441667 L39.0555556,31.4091667 L40.3935185,30.5827778 L41.7962963,29.9263889 L43.3472222,29.4022222 L45.0648148,29.0197222 L46.9675926,28.7883333 L46.9675926,24 L50.7175926,24 L50.7175926,28.8402778 L52.9212963,29.1472222 L54.8425926,29.6430556 L56.5185185,30.3041667 L57.9768519,31.1258333 L59.25,32.1033333 L60.3564815,33.2697222 L61.2731481,34.625 L62,36.1927778 L62.537037,37.9966667 L62.8657407,40.0838889 L55.3148148,40.0838889 L54.9907407,38.7238889 L54.5092593,37.6141667 L53.8888889,36.7075 L53.087963,35.9802778 L52.0509259,35.4183333 L50.7175926,35.0263889 L50.7175926,44.6597222 L53.3564815,45.1508333 L55.6203704,45.7694444 L57.5509259,46.5013889 L58.9351852,47.2191667 L60.1157407,48.0502778 L61.1157407,48.9947222 L61.9490741,50.0572222 L62.5925926,51.2283333 L63.0740741,52.5977778 L63.3842593,54.1938889 L63.5,56.0638889 L63.4027778,57.6788889 L63.125,59.1947222 L62.6712963,60.6208333 L62.0416667,61.9666667 L61.2407407,63.2133333 L60.2638889,64.3419444 L59.1064815,65.3619444 L57.7407407,66.2827778 L56.3055556,67.0005556 L54.6712963,67.5813889 L52.8194444,68.0111111 L50.7175926,68.2755556 L50.7175926,75 L46.9675926,75 Z M55.7222222,56.7061111 L55.6157407,55.4783333 L55.287037,54.515 L54.9259259,53.9672222 L54.4074074,53.4619444 L53.6944444,52.9944444 L52.4351852,52.4608333 L50.537037,51.9555556 L50.537037,61.7777778 L52.1018519,61.3716667 L53.3472222,60.7861111 L54.3287037,60.0305556 L54.9305556,59.3222222 L55.3564815,58.5477778 L55.625,57.6788889 L55.7222222,56.7061111 Z M42.3888889,39.4086111 L42.4814815,40.5844444 L42.7685185,41.5241667 L43.087963,42.0625 L43.5648148,42.5583333 L44.2175926,43.0163889 L45.3888889,43.5405556 L47.2037037,44.0222222 L47.2037037,34.9555556 L45.6805556,35.3097222 L44.5092593,35.8291667 L43.625,36.4997222 L42.9398148,37.3591667 L42.5324074,38.3177778 L42.3888889,39.4086111 Z" id="Shape" fill="#FD2C2F"></path>
                    </g>
                    <rect id="矩形" x="0" y="0" width="336" height="336"></rect>
                </g>
            </g>
        </g>
    </g>
</svg>