<?xml version="1.0" encoding="UTF-8"?>
<svg width="336px" height="336px" viewBox="0 0 336 336" version="1.1" xmlns="http://www.w3.org/2000/svg" xmlns:xlink="http://www.w3.org/1999/xlink">
    <title>umate_graph_4@2x</title>
    <defs>
        <linearGradient x1="50%" y1="0%" x2="50%" y2="100%" id="linearGradient-1">
            <stop stop-color="#404040" offset="0%"></stop>
            <stop stop-color="#262626" offset="100%"></stop>
        </linearGradient>
    </defs>
    <g id="页面-1" stroke="none" stroke-width="1" fill="none" fill-rule="evenodd">
        <g id="应用分类_umate" transform="translate(-1075.000000, -1441.000000)">
            <g id="特性" transform="translate(531.000000, 809.000000)">
                <g id="umate_graph_4" transform="translate(544.000000, 632.000000)">
                    <g id="编组-42" transform="translate(41.000000, 37.000000)">
                        <path d="M193.883489,236.37682 C230.536338,213.981324 255,173.597559 255,127.5 C255,57.0836944 197.916306,0 127.5,0 C57.0836944,0 0,57.0836944 0,127.5 C0,171.070841 21.8553361,209.537095 55.2013036,232.534057 C75.7468785,246.703261 174.547295,248.191554 193.883489,236.37682 Z" id="椭圆形" fill="#FFFFFF" opacity="0.04"></path>
                        <circle id="椭圆形" fill="#201E1E" cx="127.977528" cy="127.977528" r="71.6292135"></circle>
                        <path d="M125.789351,207.303795 L125.788751,232.926361 C108.277587,232.574986 91.8180748,227.937718 77.4162231,220.020567 L90.2302388,197.826077 C100.857508,203.570759 112.943233,206.962687 125.789351,207.303795 Z M166.265055,197.486779 L179.076559,219.677824 C164.751486,227.679075 148.359385,232.422854 130.902579,232.906838 L130.902757,207.277925 C143.694247,206.808289 155.713171,203.313082 166.265055,197.486779 Z M85.8148512,195.252069 L72.9985557,217.449926 C58.6159362,208.605053 46.5270616,196.391386 37.8312073,181.9082 L60.0227301,169.096385 C66.4624114,179.695959 75.313615,188.66835 85.8148512,195.252069 Z M196.063466,168.745506 L218.252895,181.557155 C209.663084,195.99084 197.711587,208.190594 183.47825,217.076572 L170.657563,194.873336 C181.011878,188.252497 189.728278,179.295456 196.063466,168.745506 Z M22.9213458,129.254282 L48.5396273,129.254056 C48.7490987,142.007864 51.9653236,154.030384 57.5102443,164.643559 L35.307293,177.462597 C27.5944799,163.070975 23.1375902,146.673296 22.9213458,129.254282 Z M232.949346,129.253358 L232.961169,127.923859 C232.961169,145.692273 228.548672,162.430092 220.759675,177.101323 L198.552666,164.280191 C203.981846,153.756289 207.127549,141.862531 207.334633,129.254056 L232.949346,129.253358 Z M232.894331,124.141617 L207.257064,124.141675 C206.673366,111.693736 203.223574,99.9953237 197.55271,89.6914611 L219.74448,76.8801266 C227.58876,90.9587101 232.28859,107.029086 232.894331,124.141617 Z M36.3299686,76.5224829 L58.519211,89.3344947 C52.7308715,99.7248135 49.2076453,111.549762 48.6171965,124.141675 L22.9799291,124.141617 C23.5908062,106.884006 28.3654847,90.6862964 36.3299686,76.5224829 Z M217.148683,72.4771003 L194.945776,85.2961024 C188.499634,75.1841996 179.827482,66.6293657 169.61967,60.3219497 L182.43396,38.1276312 C196.522576,46.6962626 208.435223,58.4871575 217.148683,72.4771003 Z M74.0467871,37.7615659 L86.8587241,59.9523667 C76.5059491,66.2224726 67.7005054,74.7910835 61.1499917,84.9506008 L38.9432688,72.1291011 C47.7625138,58.0918114 59.8109505,46.2887025 74.0467871,37.7615659 Z M178.003333,35.5786486 L165.186702,57.7763645 C154.897253,52.3010976 143.260537,49.0235065 130.902757,48.5697933 L130.902579,22.9408805 C147.924987,23.4128212 163.93502,27.9351919 178.003333,35.5786486 Z M125.788751,22.9213575 L125.789351,48.5439235 C113.377867,48.8734911 101.676192,52.0509278 91.3139054,57.4466537 L78.4939377,35.242881 C92.6369591,27.6821211 108.712844,23.2639992 125.788751,22.9213575 Z" id="形状结合" fill="#0F0F0F"></path>
                    </g>
                    <polygon id="Shape" fill="#FD2C2F" points="178.823529 134 161.176471 134 155 134 170 117 185 134"></polygon>
                    <polygon id="Shape" fill="#FD2C2F" points="178.823529 147 161.176471 147 155 147 170 130 185 147"></polygon>
                    <text id="USDT" font-family="AlimamaShuHeiTi, Alimama ShuHeiTi" font-size="30" font-weight="bold" fill="#FFFFFF">
                        <tspan x="133" y="189">USDT</tspan>
                    </text>
                    <polygon id="Shape" fill="#FD2C2F" points="53 284 284 284 281.635075 277.687783 279.281705 272.026351 276.943742 266.975779 274.628889 262.48017 272.333294 258.503593 270.068513 255.006122 267.82299 251.943838 265.60828 249.284802 263.412829 246.99308 261.240488 245.040724 259.087405 243.399787 256.945877 242.042321 254.8082 240.956348 252.670524 240.113921 250.521293 239.515039 248.352803 239.143732 246.149648 239 243.900273 239.083843 241.600827 239.403247 239.228199 239.966196 236.778537 240.788661 234.240287 241.890604 231.594191 243.295981 228.836396 245.028746 224.060326 248.182859 219.788825 250.84988 215.979524 253.073729 212.089339 255.157839 208.592023 256.834709 205.456765 258.148257 202.244473 259.270162 199.294094 260.076657 196.578667 260.595688 193.836279 260.887144 191.201737 260.939047 188.667339 260.763375 186.152199 260.372105 183.610098 259.781208 181.033331 258.986692 178.498933 258.048443 175.822023 256.93053 172.991046 255.616982 168.700287 253.492946 163.854887 250.997604 159.205923 248.665957 155.019158 246.761512 151.256078 245.240351 148.344216 244.226244 145.613382 243.443705 143.052023 242.876763 140.644729 242.505456 138.179661 242.321799 135.783923 242.35374 133.449812 242.601278 131.165772 243.052435 128.939507 243.707213 126.670874 244.597551 124.352169 245.731435 121.971838 247.132819 119.73787 248.645994 117.376797 250.446633 114.86936 252.554698 112.211708 254.998137 109.63109 257.317807 106.719228 259.661432 103.449161 262.02502 99.797779 264.408571 95.7342682 266.812084 91.2278154 269.23556 86.2437556 271.675007 80.7512756 274.126431 74.7195618 276.589832 68.106246 279.061219 60.8805149 281.528613"></polygon>
                    <polygon id="Shape" fill="url(#linearGradient-1)" points="53 285 284 285 257.250158 255.162987 252.797629 249.920569 246.96235 243.031772 243.626805 239.305756 239.906093 235.387181 237.329326 232.840589 234.625454 230.337322 231.786774 227.872567 228.878764 225.552232 225.870611 223.385943 222.770017 221.378516 219.584687 219.587717 216.333878 218.061688 213.009888 216.790798 210.475489 216.039818 207.910278 215.491025 205.314253 215.144419 202.672008 215 200.049021 215.086652 197.383666 215.42363 194.679795 216.020563 191.918148 216.891892 189.256645 218.00392 186.541218 219.438484 183.760313 221.210027 180.906226 223.357059 174.027145 229.129015 168.230383 234.227013 158.165972 243.373564 153.751959 247.292139 149.919548 250.459735 147.36204 252.366068 144.958599 253.925796 142.693817 255.167801 140.941308 255.942851 139.19265 256.530156 137.443992 256.93453 135.687631 257.165601 133.938974 257.208926 132.097876 257.054879 130.156635 256.698645 128.107547 256.125782 125.457598 255.114848 122.48411 253.665841 119.152416 251.72581 115.281489 249.381404 111.876613 247.470257 108.895421 245.949041 105.852603 244.5915 103.164138 243.604635 100.79151 242.940307 98.3842165 242.516677 96.1810618 242.3867 94.1589355 242.526305 92.163771 242.940307 90.2186781 243.609449 88.3159536 244.54336 86.4787074 245.689086 84.5682796 247.104394 82.5692633 248.813355 79.6111815 251.648786 76.2448228 255.162987 71.6497816 260.236916 67.3551706 265.267519 63.3571381 270.254797 59.6364258 275.208376 56.189182 280.11863"></polygon>
                    <rect id="矩形备份" x="0" y="0" width="336" height="336"></rect>
                </g>
            </g>
        </g>
    </g>
</svg>