<?xml version="1.0" encoding="UTF-8"?>
<svg width="16px" height="16px" viewBox="0 0 16 16" version="1.1" xmlns="http://www.w3.org/2000/svg" xmlns:xlink="http://www.w3.org/1999/xlink">
    <title>pop_ic_search_nor@2x</title>
    <g id="页面-1" stroke="none" stroke-width="1" fill="none" fill-rule="evenodd">
        <g id="DEX_弹窗" transform="translate(-720.000000, -285.000000)" fill="#747272" fill-rule="nonzero">
            <g id="pop" transform="translate(674.000000, 190.000000)">
                <g id="搜索" transform="translate(30.000000, 78.000000)">
                    <g id="pop_ic_search" transform="translate(16.000000, 17.000000)">
                        <path d="M13,7 C13,9.69230769 10.6923077,12 8,12 C5.30769231,12 3,9.69230769 3,7 C3,4.30769231 5.41538463,2 8,2 C10.6923077,2 13,4.30769231 13,7 Z M1,7 C1,10.8769231 4.12307692,14 8,14 C11.8769231,14 15,10.8769231 15,7 C15,3.12307692 11.8769231,0 8,0 C4.12307692,0 1,3.12307692 1,7 Z" id="形状"></path>
                        <path d="M11.5575221,11.2068966 L11.238938,11.6206896 C10.920354,11.9310345 10.920354,12.4482759 11.238938,12.7586207 L13.5,15 C13.6061947,15.1034483 13.8185841,15.2068966 14.0309734,15.2068966 C14.2433628,15.2068966 14.4557522,15.1034483 14.5619469,15 L14.880531,14.6896552 C15.199115,14.3793104 15.199115,13.862069 14.880531,13.5517241 L12.619469,11.3103448 C12.5132743,11.1034483 12.3008849,11 12.0884956,11 C11.8761062,11 11.6637168,11.1034483 11.5575221,11.2068966 Z" id="路径"></path>
                    </g>
                </g>
            </g>
        </g>
    </g>
</svg>