<?xml version="1.0" encoding="UTF-8"?>
<svg width="82px" height="24px" viewBox="0 0 82 24" version="1.1" xmlns="http://www.w3.org/2000/svg" xmlns:xlink="http://www.w3.org/1999/xlink">
    <title>logo @2x</title>
    <g id="页面-1" stroke="none" stroke-width="1" fill="none" fill-rule="evenodd">
        <g id="$avav_Home" transform="translate(-358.000000, -18.000000)" fill="#FD2C2F">
            <g id="logo-" transform="translate(358.000000, 18.000000)">
                <path d="M14.6995413,0 L29,24 L25.4082569,24 L14.6995413,5.9833795 L8.38073394,16.0886427 L14.3669725,16.0886427 L12.3715596,19.2132964 L6.65137615,19.2132964 L3.65825688,24 L0,24 L14.6995413,0 Z M49.6995413,0 L64,24 L60.4082569,24 L49.6995413,5.9833795 L43.3807339,16.0886427 L49.3669725,16.0886427 L47.3715596,19.2132964 L41.6513761,19.2132964 L38.6582569,24 L35,24 L49.6995413,0 Z M21.3410138,0 L32.2995392,17.9672131 L43.1912442,0.721311475 L47,0.721311475 L32.2995392,24 L18,0 L21.3410138,0 Z M55.3410138,0 L66.2995392,17.9672131 L77.1912442,0.721311475 L81,0.721311475 L66.2995392,24 L52,0 L55.3410138,0 Z" id="logo"></path>
            </g>
        </g>
    </g>
</svg>