<?xml version="1.0" encoding="UTF-8"?>
<svg width="72px" height="118px" viewBox="0 0 72 118" version="1.1" xmlns="http://www.w3.org/2000/svg" xmlns:xlink="http://www.w3.org/1999/xlink">
    <title>top_card_logo_2@2x</title>
    <g id="页面-1" stroke="none" stroke-width="1" fill="none" fill-rule="evenodd">
        <g id="$avav_Home" transform="translate(-619.000000, -939.000000)" fill="#FFFFFF" fill-rule="nonzero">
            <g id="1" transform="translate(359.000000, 164.000000)">
                <g id="logo" transform="translate(0.000000, 739.000000)">
                    <g id="2" transform="translate(202.000000, 0.000000)">
                        <g id="top_card_logo_2" transform="translate(58.000000, 36.000000)">
                            <g transform="translate(3.005040, 0.000000)" id="形状">
                                <path d="M32,0 C14.3323943,0 0,14.3323943 0,32 C0,49.6676057 14.3323943,64 32,64 C49.6676057,64 64,49.6676057 64,32 C64,14.3323943 49.6676057,0 32,0 Z M50.7267606,39.256338 C50.7267606,45.1605634 45.7690141,49.9380282 39.7971831,49.6676056 C37.1605634,49.5549295 34.6591549,48.3605633 32.7887324,46.4901408 L32,45.7014084 C31.684507,45.3859155 31.684507,44.8450704 32,44.5295775 L33.8478873,42.6816901 C34.1633803,42.3661972 34.7042253,42.3661972 35.0197183,42.6816901 L35.8309859,43.4929577 C36.9126761,44.5746479 38.3549296,45.2957746 39.887324,45.3859155 C43.4478874,45.6112676 46.4225352,42.7943662 46.4450704,39.2788732 C44.7098591,40.540845 42.5915493,41.284507 40.2929577,41.284507 C36.8676056,41.284507 33.8253521,39.6169014 31.9098591,37.0704225 C29.9943662,39.5267606 27.0197183,41.1267605 23.6619719,41.1267605 C17.9605634,41.1267605 13.3183099,36.5295775 13.2507042,30.8507042 L13.2507042,15.1211267 C13.2507042,14.6704225 13.6112676,14.2873239 14.0845071,14.2873239 L16.6985915,14.2873239 C17.1492958,14.2873239 17.5323944,14.6704225 17.5323944,15.1211267 L17.5323944,22.3098592 C19.2676056,21.0478873 21.3859155,20.3042254 23.684507,20.3042254 C27.1098591,20.3042254 30.1521127,21.971831 32.0676056,24.540845 C33.9830985,22.0619718 36.9577465,20.484507 40.315493,20.484507 C45.971831,20.484507 50.5915493,25.0140845 50.7267606,30.6253521 L50.7267606,39.256338 L50.7267606,39.256338 Z"></path>
                                <path d="M23.684507,24.5859155 C20.2816901,24.5859155 17.5323944,27.3352112 17.5323944,30.7380282 C17.5323944,34.3661972 20.6873239,37.2732394 24.3830986,36.8450704 C27.2,36.5295775 29.4760563,34.2535211 29.7915493,31.4366197 C30.2197183,27.7183098 27.3126761,24.5859155 23.684507,24.5859155 Z M39.684507,24.7661971 C36.8,25.0591549 34.4788732,27.3802817 34.1859155,30.2647887 C33.8028169,34.1408451 37.0478873,37.4084507 40.9464789,37.0028169 C43.8309859,36.7098591 46.1521127,34.3887324 46.4450704,31.5042253 C46.828169,27.6281689 43.5605633,24.3830986 39.684507,24.7661971 L39.684507,24.7661971 Z"></path>
                            </g>
                            <path d="M3.68066269,96.0987432 L3.68066269,88.583483 C3.68066269,88.2567325 3.42476489,88 3.09907682,88 L0.586625987,88 C0.260937913,88 0.00504011866,88.2567325 0.00504011866,88.583483 L0.00504011866,107.978456 C0.00504011866,108.305206 0.260937913,108.561939 0.586625987,108.561939 L3.09907682,108.561939 C3.42476489,108.561939 3.68066269,108.305206 3.68066269,107.978456 L3.68066269,107.114901 C4.49488287,108.375224 6.00700608,108.982047 8.310086,108.958707 C11.1947518,108.912029 14.3353154,106.508079 14.3353154,101.536804 C14.3353154,96.5421903 11.1482249,94.3016158 8.05418821,94.1382405 C4.98341491,93.9982046 3.68066269,96.0987432 3.68066269,96.0987432 Z M7.12365086,105.481149 C7.12365086,105.481149 3.68066269,105.597846 3.68066269,101.443447 C3.68066269,101.420108 3.72718957,97.6624775 7.12365086,97.545704 C7.12365086,97.545704 10.5899025,97.475763 10.5666391,101.560144 C10.5433757,105.644524 7.12365094,105.481149 7.12365086,105.481149 Z M47.8579235,101.466786 C47.8579235,102.70377 48.3464556,108.958707 55.069588,108.958707 C58.5358396,108.958707 60.2108069,106.531418 60.8389196,105.341113 C61.0017636,105.014363 60.8389196,104.617594 60.489968,104.524237 L58.396259,103.824057 C58.1403612,103.7307 57.8612,103.824057 57.7216194,104.057451 C57.3494044,104.640934 56.4421305,105.644524 54.6741096,105.644524 C52.5106102,105.644524 51.533546,103.777379 51.4870192,102.493716 L60.8854464,102.493716 C61.2111345,102.493716 61.4670322,102.236984 61.4670322,101.910233 C61.4670322,100.043088 61.0482904,94.1382405 54.697373,94.1382405 C48.5325631,94.1382405 47.8579235,99.9263913 47.8579235,101.466786 Z M54.7671633,97.2190305 C57.7216194,97.2190305 57.6983588,99.9263914 57.6983588,99.9263914 L51.533546,99.9263914 C51.5102826,99.9263914 51.6498631,97.2190305 54.7671633,97.2190305 Z M16.7081856,108.935368 L19.2438999,108.935368 C19.5695879,108.935368 19.8254857,108.678636 19.8254857,108.351885 L19.8254857,95.7019748 C19.8254857,95.3752244 19.5695879,95.1184919 19.2438999,95.1184919 L16.7081856,95.1184919 C16.3824976,95.1184919 16.1265998,95.3752244 16.1265998,95.7019748 L16.1265998,108.351885 C16.1265998,108.678636 16.3824976,108.935368 16.7081856,108.935368 Z M17.9876745,93.0412926 C19.3369536,93.0412926 20.430335,91.9443447 20.430335,90.5906642 C20.430335,89.2369838 19.3369536,88.1400359 17.9876745,88.1400359 C16.6383953,88.1400359 15.5450139,89.2369838 15.5450139,90.5906642 C15.5450139,91.9443447 16.6383953,93.0412926 17.9876745,93.0412926 Z M30.5034018,95.421903 C30.5034018,95.0951526 30.247504,94.8384201 29.921816,94.8384201 L28.0840047,94.8384201 C27.8513704,94.8384201 27.6652629,94.6517056 27.6652629,94.4183124 L27.6652629,91.2441651 C27.6652629,90.9174147 27.4093651,90.6606822 27.0836771,90.6606822 L24.7340702,90.6606822 C24.4083822,90.6606822 24.1524844,90.9174148 24.1524845,91.2441651 L24.1524845,94.4183124 C24.1524845,94.6517056 23.966377,94.8384201 23.7337426,94.8384201 L22.0820389,94.8384201 C21.7563508,94.8384201 21.500453,95.0951526 21.500453,95.421903 L21.500453,97.545781 C21.500453,97.8725314 21.7563508,98.1292639 22.0820389,98.1292639 L23.7337426,98.1292639 C23.9663769,98.1292639 24.1524845,98.3159784 24.1524845,98.5493716 L24.1524845,104.75763 C24.1524845,104.75763 23.9198501,108.51526 27.5256824,108.86535 C28.7353809,108.982047 29.5728645,108.86535 30.0381332,108.725314 C30.294031,108.655296 30.4801384,108.421903 30.4801384,108.165171 L30.4801384,106.228007 C30.4801384,105.877917 30.2009772,105.621185 29.8520257,105.644524 C29.0843324,105.691203 27.8281069,105.644524 27.6652629,104.804309 L27.6652629,98.5493716 C27.6652629,98.3159784 27.8513703,98.1292638 28.0840047,98.1292639 L29.921816,98.1292639 C30.2242407,98.1526032 30.5034018,97.8725314 30.5034018,97.545781 L30.5034018,95.421903 Z M71.0050401,97.545781 L71.0050401,95.421903 C71.0050401,95.0951526 70.7491423,94.8384201 70.4234543,94.8384201 L68.585643,94.8384201 C68.3530087,94.8384201 68.1669011,94.6517056 68.1669011,94.4183124 L68.1669011,91.2441651 C68.1669011,90.9174147 67.9110033,90.6606822 67.5853153,90.6606822 L65.2357085,90.6606822 C64.9100205,90.6606822 64.6541227,90.9174148 64.6541227,91.2441651 L64.6541227,94.4183124 C64.6541227,94.6517056 64.4680152,94.8384201 64.2353808,94.8384201 L62.5836771,94.8384201 C62.257989,94.8384201 62.0020912,95.0951526 62.0020912,95.421903 L62.0020912,97.545781 C62.0020912,97.8725314 62.257989,98.1292639 62.5836771,98.1292639 L64.2353808,98.1292639 C64.4680152,98.1292639 64.6541227,98.3159784 64.6541227,98.5493716 L64.6541227,104.75763 C64.6541227,104.75763 64.4214884,108.51526 68.0273206,108.86535 C69.2370191,108.982047 70.0745028,108.86535 70.5397714,108.725314 C70.7956692,108.655296 70.9817766,108.421903 70.9817766,108.165171 L70.9817766,106.228007 C70.9817766,105.877917 70.7026154,105.621185 70.353664,105.644524 C69.5859707,105.691203 68.3297452,105.644524 68.1669011,104.804309 L68.1669011,98.5493716 C68.1669011,98.3159784 68.3530086,98.1292638 68.585643,98.1292639 L70.4234543,98.1292639 C70.7491423,98.1526032 71.0050401,97.8725314 71.0050401,97.545781 Z M42.41428,94.978456 L42.41428,96.005386 C42.1351188,95.561939 41.0417374,94.1849192 38.4362327,94.1849192 C35.342196,94.1849192 32.015525,96.1454219 32.015525,101.116697 C32.015525,106.111311 36.1564162,107.651706 38.6688671,107.651706 C40.5299418,107.651706 41.8326941,106.624776 42.41428,105.924596 L42.41428,106.414722 C42.41428,106.414722 42.6003874,110.709156 39.0643455,110.709156 C36.5286312,110.709156 35.6678842,109.355476 35.3887229,108.585278 C35.2724058,108.305206 34.9699811,108.141831 34.69082,108.235188 L32.550584,108.795332 C32.2248959,108.888689 32.0387885,109.21544 32.1318422,109.54219 C32.550584,110.872531 34.0394437,114 39.0643455,114 C45.4385263,114 46.0201122,108.258528 46.0201122,106.694794 L46.0201122,95.0017953 C46.0201122,94.6750448 45.7642144,94.4183123 45.4385263,94.4183124 L42.9726024,94.4183124 C42.6934412,94.3716338 42.41428,94.6517056 42.41428,94.978456 Z M39.0876089,104.454219 C37.1567439,104.454219 35.5980938,102.890485 35.5980938,100.953321 C35.5980938,99.0161579 37.1567439,97.4524237 39.0876089,97.4524237 C40.6695224,97.4524237 42.5305971,98.6193895 42.5305971,100.953321 C42.5073337,103.287253 40.6695225,104.454219 39.0876089,104.454219 Z" id="形状"></path>
                        </g>
                    </g>
                </g>
            </g>
        </g>
    </g>
</svg>