<?xml version="1.0" encoding="UTF-8"?>
<svg width="186px" height="186px" viewBox="0 0 186 186" version="1.1" xmlns="http://www.w3.org/2000/svg" xmlns:xlink="http://www.w3.org/1999/xlink">
    <title>top_logo_bg_hover2@2x</title>
    <defs>
        <linearGradient x1="0%" y1="-3.68199457%" x2="62.5802784%" y2="57.2224279%" id="linearGradient-1">
            <stop stop-color="#C32326" offset="0%"></stop>
            <stop stop-color="#FFFFFF" stop-opacity="0" offset="100%"></stop>
        </linearGradient>
        <polygon id="path-2" points="0.00504011866 0 164.00504 0 186.00504 22 186.00504 186 22.0050401 186 0.00504011866 164"></polygon>
        <filter x="-10.2%" y="-10.2%" width="120.4%" height="120.4%" filterUnits="objectBoundingBox" id="filter-3">
            <feGaussianBlur stdDeviation="15" in="SourceAlpha" result="shadowBlurInner1"></feGaussianBlur>
            <feOffset dx="0" dy="-8" in="shadowBlurInner1" result="shadowOffsetInner1"></feOffset>
            <feComposite in="shadowOffsetInner1" in2="SourceAlpha" operator="arithmetic" k2="-1" k3="1" result="shadowInnerInner1"></feComposite>
            <feColorMatrix values="0 0 0 0 0.992156863   0 0 0 0 0.17254902   0 0 0 0 0.184313725  0 0 0 0.573643398 0" type="matrix" in="shadowInnerInner1"></feColorMatrix>
        </filter>
    </defs>
    <g id="页面-1" stroke="none" stroke-width="1" fill="none" fill-rule="evenodd">
        <g id="$avav_Home" transform="translate(-1684.000000, -1105.000000)">
            <g id="1" transform="translate(359.000000, 150.000000)">
                <g id="logo" transform="translate(0.000000, 753.000000)">
                    <g id="top_logo_bg_hover2" transform="translate(1325.000000, 202.000000)">
                        <g id="矩形">
                            <use fill="black" fill-opacity="1" filter="url(#filter-3)" xlink:href="#path-2"></use>
                            <path stroke="url(#linearGradient-1)" stroke-width="2" d="M163.590827,1 L185.00504,22.4142136 L185.00504,185 L22.4192537,185 L1.00504012,163.585786 L1.00504012,1 L163.590827,1 Z" stroke-linejoin="square"></path>
                        </g>
                        <path d="M186.00504,164 L186.00504,166 L166,166 L166,186.015333 L164,186.015333 L164,164.015333 L164.005,164.015 L164.00504,164 L186.00504,164 Z" id="形状结合" fill="#FD2C2F" transform="translate(175.002520, 175.007666) rotate(-180.000000) translate(-175.002520, -175.007666) "></path>
                    </g>
                </g>
            </g>
        </g>
    </g>
</svg>