<?xml version="1.0" encoding="UTF-8"?>
<svg width="84px" height="118px" viewBox="0 0 84 118" version="1.1" xmlns="http://www.w3.org/2000/svg" xmlns:xlink="http://www.w3.org/1999/xlink">
    <title>top_card_logo_4@2x</title>
    <g id="页面-1" stroke="none" stroke-width="1" fill="none" fill-rule="evenodd">
        <g id="$avav_Home" transform="translate(-612.000000, -1141.000000)" fill="#FFFFFF">
            <g id="1" transform="translate(359.000000, 164.000000)">
                <g id="logo" transform="translate(0.000000, 739.000000)">
                    <g id="4" transform="translate(202.005040, 202.000000)">
                        <g id="top_card_logo_4" transform="translate(50.994960, 36.000000)">
                            <g id="编组" transform="translate(20.000000, 0.000000)">
                                <path d="M39.5039467,25.9596071 L39.5037531,25.9594107 C39.4640543,25.928375 39.4241619,25.8969464 39.3840758,25.8645357 C41.0791161,23.3934643 41.9267331,20.3828036 41.9267331,16.8322589 C41.9267331,11.5677571 40.146873,7.44623393 36.5873465,4.46774821 C33.0278201,1.48924875 28.1291866,0 21.8914461,0 L6.35639135,0 L6.35639135,2.20324107 L21.6116183,2.20324107 C26.9128553,2.20324107 31.6420428,3.40000179 34.6423009,5.88063929 C37.4328333,8.18710357 38.4560931,10.1774161 39.2729193,13.1516196 C38.443312,10.438725 36.4887774,8.69355536 35.2747699,7.66774643 C33.1484656,5.85484821 30.5074329,4.58709821 23.3120808,4.58709821 L11.3111647,4.58709821 L11.3111647,6.73547679 L23.0260561,6.73547679 C29.1661957,6.73547679 31.4195361,7.5032375 33.4854209,9.05484643 C36.1328441,11.0419375 37.769595,13.4161304 37.769595,16.8419429 C37.769595,19.9290536 36.7048936,21.580625 34.909154,23.2934821 C34.6994284,23.2096071 34.4897027,23.1290714 34.2735865,23.0516786 L34.4769217,22.941875 C36.4188689,21.8548393 37.7632045,19.7677857 37.7632045,16.8322589 C37.7632045,13.6258179 35.9515854,11.6193589 34.1783095,10.4935482 C32.5159965,9.43548571 30.9332747,8.72580893 24.179644,8.72580893 L15.566775,8.72580893 L15.566775,10.1419411 L23.9381593,10.1419411 C30.0339525,10.1419411 32.3444204,11.2419411 33.046798,11.6774232 C34.4134036,12.5290393 36.2250227,14.0064571 36.2250227,16.8387214 C36.2250227,18.6451571 35.1731024,20.8192679 33.6188475,21.7065357 C33.1141891,21.9901786 32.5816447,22.2192143 32.0297351,22.3903036 C29.7161688,21.8581786 27.3495416,21.6006607 24.9774923,21.6226607 L14.5847245,21.6226607 L14.5847245,23.8226607 L24.6881754,23.8226607 C29.9894124,23.8226607 34.7885085,24.9322857 37.7186644,27.5031429 C39.9307568,29.4122321 41.5402027,31.939875 42.3461844,34.771 C41.5198692,32.058125 39.8226987,30.4128393 38.3511334,29.2871071 C36.1264536,27.5807321 33.58399,26.2031786 26.3884443,26.2065179 L10.1002556,26.2065179 L10.1002556,28.3548571 L26.1215912,28.3548571 C32.2617308,28.3548571 34.5119728,29.1225 36.580956,30.6742857 C39.2243125,32.6605714 40.8387934,35.0338214 40.8397616,38.4579643 C40.8387934,41.2274107 39.5200199,43.3003214 37.5757489,44.3484643 C35.6370938,45.3968036 32.8911014,45.9968929 28.2351145,45.9904107 L0,45.9904107 L0,44.6258214 L28.1334469,44.6258214 C32.417621,44.6258214 35.3001384,43.92575 36.7143826,43.142 C38.2717359,42.284 39.3238499,40.1902679 39.3238499,38.4483393 C39.3238499,35.7226964 37.5153293,34.2871964 36.1456252,33.4645536 C35.446346,33.0451786 33.1325861,31.9807321 27.040085,31.9807321 L16.3041069,31.9807321 L16.3041069,30.6194821 L27.2784712,30.6194821 C34.1560395,30.6194821 35.6179222,31.3065893 37.2802352,32.3258571 C39.053511,33.419375 40.8397616,35.3612679 40.8397616,38.4548214 C40.8397616,38.4558036 40.8397616,38.4569821 40.8397616,38.4579643 C40.8397616,38.4589464 40.8397616,38.460125 40.8397616,38.4613036 C40.8397616,41.7644464 39.1997187,44.1742321 36.5428065,46.1613036 C33.8254747,48.1904107 29.6716287,48.2548393 27.9808488,48.2548393 L19.0818389,48.2548393 L19.0818389,50.4065179 L25.7338989,50.4065179 C31.301989,50.4065179 35.0205042,49.9225179 38.2399769,47.5033036 C41.2592129,45.2257143 42.8642048,42.2806607 42.8642048,38.4709286 C42.893059,40.5124107 42.460633,42.5332679 41.6000413,44.3787143 C40.7394496,46.2239643 39.4737369,47.8446964 37.8999231,49.1161786 C34.8520265,51.6709286 29.4140709,52.7968571 23.9730168,52.7968571 L6.45805891,52.7968571 L6.45805891,55 L24.0969544,55 C30.6652596,55 35.7916284,53.5527143 39.4762544,50.6581429 C43.1608804,47.763375 45.0021283,43.7010357 45,38.4709286 C45,33.1956429 43.2222683,29.068875 39.6670021,26.0902321 C39.613554,26.0454464 39.558944,26.002625 39.5039467,25.9596071 Z" id="路径"></path>
                                <polygon id="路径" points="29 35.3895 14 35.3895 14 36.6105 29 36.6105"></polygon>
                                <polygon id="路径" points="20 39.4764 29 39.4764 29 40.5236 20 40.5236"></polygon>
                                <polygon id="路径" points="11 35.3895 6 35.3895 6 36.6105 11 36.6105"></polygon>
                                <polygon id="路径" points="3 39.3895 17 39.3895 17 40.6105 3 40.6105"></polygon>
                                <polygon id="路径" points="16 49.2681 3 49.2681 3 50.7319 16 50.7319"></polygon>
                                <polygon id="路径" points="0 53 3 53 3 55 0 55"></polygon>
                                <polygon id="路径" points="12 9.49617 7 9.49617 7 10.50383 12 10.50383"></polygon>
                                <polygon id="路径" points="3 17.41409 15 17.41409 15 18.58591 3 18.58591"></polygon>
                                <polygon id="路径" points="29 13.41409 9 13.41409 9 14.58591 29 14.58591"></polygon>
                                <polygon id="路径" points="18 17.41409 28 17.41409 28 18.58591 18 18.58591"></polygon>
                            </g>
                            <path d="M15.6866978,94.1655989 C15.9991583,94.4068417 16.3846974,94.5325878 16.7785041,94.5216982 C17.1802934,94.533161 17.5735299,94.4033455 17.8904569,94.1546138 C18.0330978,94.0531877 18.1493202,93.9188349 18.229621,93.7628462 C18.3099219,93.606848 18.3518304,93.4337512 18.3518304,93.2581039 C18.3518304,93.0824471 18.3099219,92.9093598 18.229621,92.7533712 C18.1493202,92.5973729 18.0330978,92.4630202 17.8904569,92.3615941 C17.5721995,92.1161483 17.1793431,91.9887114 16.7785041,92.0007855 C16.3837471,91.9887496 15.9974478,92.1164444 15.6866978,92.3615941 C15.5456724,92.4657426 15.4312556,92.60213 15.3528553,92.7595037 C15.2744551,92.9168775 15.2344472,93.0907289 15.2359677,93.2667296 C15.2344472,93.4418515 15.2745501,93.6148146 15.3529504,93.7711854 C15.4313506,93.9275466 15.5457674,94.0627782 15.6866978,94.1655989 Z M15.5572661,109.716104 L17.9419635,109.716104 L17.9356914,97.5978944 L15.5572661,97.5978944 L15.5572661,109.716104 Z M0,92.7459395 L0,109.7162 L6.07169378,109.7162 C8.01601944,109.715149 9.62764304,109.265428 10.9064695,108.367036 C12.1853911,107.46874 12.8248519,106.293237 12.8248519,104.840622 C12.8412921,104.301014 12.7359983,103.764749 12.5169528,103.271851 C12.2979073,102.779049 11.970717,102.34251 11.5599948,101.994999 C10.7166935,101.265014 9.59276682,100.833155 8.18802479,100.699232 L8.18802479,100.650611 C9.31622783,100.350479 10.2000122,99.8459273 10.839378,99.1368618 C11.4679102,98.4552113 11.8113507,97.5564375 11.7986166,96.6269055 C11.799662,95.4744328 11.271482,94.5394846 10.2139817,93.8220608 C9.15657646,93.1046466 7.72741157,92.7459395 5.92658209,92.7459395 L0,92.7459395 Z M2.44238092,100.024746 L2.44238092,94.545235 L5.24350228,94.5483777 C7.90834979,94.5483777 9.24077355,95.3724718 9.24077355,97.0206503 C9.25683372,97.4590998 9.15933234,97.894206 8.95786751,98.2833658 C8.75630765,98.6725256 8.45772157,99.0022702 8.09137869,99.2404084 C7.3250521,99.7633001 6.27391886,100.024746 4.93778891,100.024746 L2.44238092,100.024746 Z M2.44238092,107.918461 L2.44238092,101.811499 L5.24815878,101.811499 C8.60140781,101.811499 10.2779373,102.813342 10.2779373,104.817123 C10.2902913,105.266367 10.1877533,105.711216 9.98020649,106.10926 C9.7726597,106.507208 9.46704136,106.844976 9.09262088,107.090183 C8.30139627,107.642305 7.18934843,107.918461 5.75657238,107.918461 L2.44238092,107.918461 Z M28.481805,109.598516 C27.9203644,109.8506 27.1790308,109.976595 26.2578044,109.976595 C23.6500703,109.976595 22.3468209,108.793259 22.3478662,106.426586 L22.3478662,99.2545458 L19.7885027,99.2545458 L19.7885027,97.5979899 L22.3478662,97.5979899 L22.3478662,94.6393918 L24.7309481,94.0119028 L24.7309481,97.5979899 L28.4740125,97.5979899 L28.4740125,99.2545458 L24.7309481,99.2545458 L24.7309481,106.083087 C24.7309481,106.895699 24.9003876,107.475522 25.2393617,107.822747 C25.5783357,108.169972 26.1408217,108.343537 26.9269147,108.343537 C27.4739107,108.359394 28.0143496,108.220217 28.4864615,107.94196 L28.481805,109.598516 Z M47.8946518,109.716104 L50.1280605,109.716104 L50.126445,94.0981312 L47.3191466,94.0981312 L41.3254729,104.942545 C41.092553,105.36294 40.7853191,106.001415 40.4037714,106.857967 L40.3227103,106.857967 C40.0810475,106.209845 39.7857875,105.583311 39.4398762,104.984957 L33.5554877,94.0981312 L30.5921491,94.0981312 L30.5921491,109.716104 L32.7584662,109.716104 L32.7584662,99.2654354 C32.7743363,98.244106 32.7384148,97.2225855 32.6508916,96.2048954 L32.7039187,96.2048954 C32.8391472,96.757657 33.0320592,97.2945141 33.2794238,97.8065161 L39.8189532,109.716104 L40.9106645,109.716104 L47.4611223,97.7187307 C47.7013596,97.2340482 47.8940816,96.7270993 48.0365325,96.2048954 L48.081767,96.2048954 C47.9682055,97.2138929 47.9057704,98.2280581 47.8946518,99.2434652 L47.8946518,109.716104 Z M64.6292518,109.716104 L62.2446494,109.716104 L62.2446494,107.822652 L62.1868708,107.822652 C61.1471413,109.275266 59.6208551,110.001048 57.6078224,109.999999 C56.1251553,109.999999 54.9642617,109.68057 54.1252367,109.041522 C53.7249679,108.751706 53.4014838,108.367705 53.1828185,107.923046 C52.9642481,107.478388 52.8573387,106.986636 52.8713082,106.490873 C52.8713082,104.227748 54.5094454,102.910584 57.7856246,102.539287 L62.2477854,102.029482 C62.2477854,99.9702979 61.2256365,98.940658 59.1815288,98.940658 C57.4483611,98.9221266 55.7519702,99.4432033 54.3248009,100.432533 L54.3248009,98.449671 C55.7877967,97.6915067 57.4742094,97.3128545 59.384229,97.313903 C62.8830649,97.313903 64.6323878,98.820968 64.6323878,101.834902 L64.6292518,109.716104 Z M62.2446494,103.585644 L58.6574351,103.98875 C57.5532748,104.114267 56.7214722,104.337026 56.1621222,104.657027 C55.6026771,104.977028 55.3214817,105.543383 55.3183153,106.3559 C55.3166351,106.643996 55.3872428,106.92789 55.5235167,107.181216 C55.6597905,107.434543 55.8574541,107.649278 56.0981666,107.805458 C56.6179839,108.179811 57.308381,108.367036 58.1693581,108.367036 C59.3515385,108.367036 60.3278827,108.029745 61.0982956,107.355163 C61.469485,107.042613 61.7660754,106.65011 61.9661148,106.206693 C62.1661542,105.763276 62.2645108,105.280313 62.2539624,104.793529 L62.2446494,103.585644 Z M73.890647,99.1713455 C74.6765498,99.1713455 75.2771431,99.301543 75.693377,99.5619381 L75.693377,99.2545458 L77.8610246,99.2545458 L77.8610246,106.426586 C77.8600743,108.793259 79.1638938,109.976595 81.7715329,109.976595 C82.6923792,109.976595 83.4336177,109.8506 83.9952485,109.598516 L84,107.94196 C83.527698,108.220026 82.986974,108.359108 82.4405482,108.343537 C81.6546453,108.343537 81.0920643,108.169972 80.7528051,107.822747 C80.4135459,107.475522 80.2443915,106.895699 80.2443915,106.083087 L80.2443915,99.2545458 L83.987646,99.2545458 L83.987646,97.5979899 L80.2443915,97.5979899 L80.2443915,94.0119028 L77.8610246,94.6393918 L77.8610246,97.5979899 L75.696228,97.5979899 L75.696228,97.5508017 C75.233429,97.4226101 74.7525743,97.3664427 74.2726699,97.3845921 C73.4383014,97.3757085 72.6210384,97.6259781 71.933017,98.1014905 C71.2231386,98.5901849 70.6786134,99.2859728 70.3735652,100.095242 L70.3146462,100.095242 L70.3146462,97.5978944 L67.9312793,97.5978944 L67.9312793,109.716104 L70.3146462,109.716104 L70.3146462,103.538551 C70.3146462,102.189483 70.655806,101.124309 71.3390759,100.343123 C71.6507762,99.9691517 72.0413519,99.6699743 72.4832441,99.4671795 C72.924186,99.2644802 73.4050407,99.1634171 73.890647,99.1713455 Z" id="形状"></path>
                        </g>
                    </g>
                </g>
            </g>
        </g>
    </g>
</svg>