<?xml version="1.0" encoding="UTF-8"?>
<svg width="98px" height="118px" viewBox="0 0 98 118" version="1.1" xmlns="http://www.w3.org/2000/svg" xmlns:xlink="http://www.w3.org/1999/xlink">
    <title>top_card_logo_3@2x</title>
    <g id="页面-1" stroke="none" stroke-width="1" fill="none" fill-rule="evenodd">
        <g id="$avav_Home" transform="translate(-807.000000, -939.000000)" fill-rule="nonzero">
            <g id="1" transform="translate(359.000000, 164.000000)">
                <g id="logo" transform="translate(0.000000, 739.000000)">
                    <g id="3" transform="translate(404.005040, 0.000000)">
                        <g id="top_card_logo_3" transform="translate(43.994960, 35.000000)">
                            <g id="编组" transform="translate(5.005040, 88.000000)" fill="#FFFFFF">
                                <path d="M9.55651262,0.00113251168 C12.3585215,0.00944957423 15.0177115,1.23344591 16.8393441,3.35334088 L16.8393441,3.35334088 L14.1243482,5.5594564 C12.9858015,4.24801813 11.3422452,3.48697622 9.55651262,3.48697622 C6.22162868,3.48697622 3.50777017,6.18573048 3.50777017,9.50056626 C3.50777017,12.8165345 6.22162865,15.5141563 9.55651262,15.5141563 C11.1636719,15.5141563 12.6320672,14.9218573 13.6909953,13.8459796 C14.3966168,13.1226984 14.8939617,12.2238292 15.1309554,11.2434881 L15.1309554,11.2434881 L10.3879588,11.2434881 L10.3879588,7.7576444 L18.8332226,7.7576444 C18.8855434,8.7599094 18.8787189,9.75537939 18.7877262,10.7576444 C18.6034659,12.8120045 17.6446299,14.8629671 16.1978453,16.3318233 C14.4735329,18.0826727 12.1156835,19 9.55651262,19 C4.28803291,19 0,14.7383918 0,9.50056626 C0,4.26274067 4.28689549,0.00113251168 9.55651262,0.00113251168 Z M27.6617933,2.93884485 C29.3633315,2.93884485 30.9358901,3.48754615 32.2101771,4.41667759 L32.2091555,3.35900339 L35.362054,3.35900339 L35.362054,17.8244621 L32.2091555,17.8244621 L32.2101771,16.7656554 C30.9358901,17.6947868 29.3633315,18.2434881 27.6617933,18.2434881 C23.4101574,18.2434881 19.9638074,14.817667 19.9638074,10.5911665 C19.9638074,6.36466592 23.4101574,2.93884485 27.6617933,2.93884485 Z M42.1250894,0 L42.1250894,3.37372593 L46.0036551,3.37372593 L46.0036551,6.32955832 L42.1250894,6.32955832 L42.1250894,13.5368063 C42.1250894,14.2842582 42.318449,14.7293318 42.6790078,15.0713477 C43.0236428,15.3975085 43.4376597,15.596829 44.1383038,15.5639864 C44.8014135,15.5334088 45.3826296,15.4371461 46.0036551,15.1698754 L46.0036551,15.1698754 L46.0036551,17.5503964 C45.6135237,17.7610419 45.1926823,17.9263873 44.7547797,18.0441676 C44.2827548,18.1698754 43.7299739,18.2344281 43.1089485,18.2344281 C42.5106712,18.2344281 41.9419666,18.1789355 41.4301324,18.0351076 C40.9239853,17.8912797 40.4974568,17.6387316 40.1334858,17.3159683 C39.7752019,16.9966025 39.4726511,16.5877689 39.2747419,16.0656851 L39.2747419,16.0656851 C39.0756952,15.5379388 38.9733284,14.8652322 38.9733284,14.0656852 L38.9733284,14.0656852 L38.9733284,6.32729332 L37.085229,6.32729332 L37.085229,3.37146094 L38.9744658,3.37146094 L38.9744658,0 L42.1250894,0 Z M81.2997393,2.92525481 C85.5513751,2.92525481 89,6.35220834 89,10.5787089 C89,14.8052095 85.5513751,18.2321631 81.2997393,18.2321631 C77.0481034,18.2321631 73.5994786,14.8052095 73.5994786,10.5787089 C73.5994786,6.35220837 77.0481035,2.92525481 81.2997393,2.92525481 Z M54.6695762,2.92525481 C58.9223494,2.92525481 62.3698403,6.35220837 62.3698403,10.5787089 C62.3701999,10.9676729 62.3409223,11.3561038 62.2822564,11.7406568 L62.2822564,11.7406568 L59.0633882,11.7406568 L59.0633882,11.7361268 L50.2746268,11.7361268 C50.7450302,13.500984 52.2343242,14.8116266 54.0511871,15.0596621 C55.8680501,15.3076977 57.6566833,14.4445529 58.5868137,12.8708947 L58.5868137,12.8708947 L61.4314743,14.2423556 C60.0802592,16.7038007 57.4868624,18.2340151 54.6695762,18.2321648 C50.4179404,18.2321648 46.9693155,14.8052095 46.9693155,10.5787089 C46.9693155,6.35220837 50.4179404,2.92525481 54.6695762,2.92525481 Z M71.8353568,4.85277464 L71.8353568,17.8255945 L68.4436024,17.8255945 L68.4436024,4.85277464 L71.8353568,4.85277464 Z M66.6544576,14.4541336 L66.6544576,17.8255945 L63.2638406,17.8255945 L63.2638406,14.4541336 L66.6544576,14.4541336 Z M27.6617933,6.05775537 C25.1526684,6.05775537 23.1167059,8.08040771 23.1167059,10.5764439 C23.1192173,13.0736627 25.1537547,15.096382 27.6617933,15.0951308 C30.1720555,15.0951308 32.2080181,13.0724802 32.2080181,10.5764439 C32.2071136,9.37691625 31.7275931,8.22689253 30.8749777,7.37944183 C30.0223623,6.53199113 28.8665175,6.05655567 27.6617933,6.05775537 Z M81.2997393,6.05662385 C78.789477,6.05662385 76.7535145,8.08040768 76.7535145,10.5753114 C76.754419,11.7748391 77.2339395,12.9248628 78.0865549,13.7723135 C78.9391703,14.6197642 80.0950151,15.0951997 81.2997393,15.094 C82.5042666,15.0948991 83.6598191,14.619331 84.5121884,13.7719128 C85.3645577,12.9244947 85.8439221,11.7746427 85.8448267,10.5753114 C85.8439221,9.37598013 85.3645577,8.22612817 84.5121884,7.37871004 C83.6598191,6.5312919 82.5042666,6.05572372 81.2997393,6.05662385 Z M54.6695762,6.05775715 C52.7788786,6.05688756 51.0850018,7.22125216 50.4156656,8.98187994 L50.4156656,8.98187994 L58.9234869,8.98187994 C58.2751636,7.27293317 56.6145461,6.05775715 54.6695762,6.05775715 Z M71.8353568,0.00113251168 L71.8353568,3.37259342 L68.4436024,3.37259342 L68.4436024,0.00113251168 L71.8353568,0.00113251168 Z" id="形状结合"></path>
                            </g>
                            <g id="编组-3" transform="translate(17.005040, 0.000000)">
                                <path d="M32,49.6 C22.2801996,49.6 14.4,41.72 14.4,32 C14.4,22.28 22.2801996,14.4 31.9973378,14.4 L31.9973378,0 C14.3281198,0 0,14.3253333 0,32 C0,49.672 14.3254575,64 32,64 C49.6718801,64 64,49.672 64,32 L49.5973378,32 C49.5973378,41.72 41.7171381,49.6 32,49.6 Z" id="路径" fill="#2354E6"></path>
                                <polygon id="路径" fill="#17E6A1" points="49.9949599 32 49.9949599 14 31.9949599 14 32.0026622 31.9946667"></polygon>
                            </g>
                        </g>
                    </g>
                </g>
            </g>
        </g>
    </g>
</svg>