<?xml version="1.0" encoding="UTF-8"?>
<svg width="358px" height="670px" viewBox="0 0 358 670" version="1.1" xmlns="http://www.w3.org/2000/svg" xmlns:xlink="http://www.w3.org/1999/xlink">
    <title>top_left_line@2x</title>
    <defs>
        <rect id="path-1" x="0" y="-2.27373675e-13" width="828" height="988"></rect>
    </defs>
    <g id="页面-1" stroke="none" stroke-width="1" fill="none" fill-rule="evenodd" opacity="0.2">
        <g id="bg'" transform="translate(-509.000132, -363.000000)">
            <g id="top_left_line" transform="translate(414.000132, 769.000000) rotate(-179.999985) translate(-414.000132, -769.000000) translate(0.000132, 275.000000)">
                <mask id="mask-2" fill="white">
                    <use xlink:href="#path-1"></use>
                </mask>
                <g id="Layer_1"></g>
                <g id="Group" mask="url(#mask-2)">
                    <g transform="translate(0.000195, 0.499219)" id="差集">
                        <path d="M276.080052,668.2403 L276.301861,668.369641 L331.643577,700.323536 L331.643577,764.471402 L331.421767,764.600743 L276.080052,796.554766 L275.858242,796.425297 L220.516527,764.471402 L220.516527,700.323536 L220.738336,700.194195 L276.080052,668.2403 Z M276.080046,669.274676 L221.385277,700.840373 L221.385277,763.971893 L276.080046,795.537969 L330.774815,763.971893 L330.774815,700.840373 L276.080046,669.274676 Z" fill="#D0D9DD" opacity="0.5"></path>
                        <path d="M331.200022,827.362191 L331.421832,827.491532 L386.763553,859.445427 L386.763553,923.593293 L386.541743,923.722634 L331.200022,955.676657 L330.978212,955.547188 L275.636491,923.593293 L275.636491,859.445427 L275.858301,859.315958 L331.200022,827.362191 Z M331.199961,828.397348 L276.505192,859.963045 L276.505192,923.094565 L331.199961,954.660641 L385.89473,923.094565 L385.89473,859.963045 L331.199961,828.397348 Z" fill="#D0D9DD" opacity="0.5"></path>
                        <path d="M331.199924,509.136378 L331.421734,509.265719 L386.763455,541.219614 L386.763455,605.36748 L386.541646,605.496821 L331.199924,637.450844 L330.978115,637.321375 L275.636393,605.36748 L275.636393,541.219614 L275.858203,541.090145 L331.199924,509.136378 Z M331.199924,510.171144 L276.505143,541.736841 L276.505143,604.868362 L331.199924,636.434438 L385.894705,604.868362 L385.894705,541.736841 L331.199924,510.171144 Z" fill="#D0D9DD" opacity="0.5"></path>
                        <path d="M276.080052,795.537969 L276.301861,795.66731 L331.643577,827.621205 L331.643577,891.769071 L331.421767,891.898412 L276.080052,923.852435 L275.858242,923.722966 L220.516527,891.769071 L220.516527,827.621205 L220.738336,827.491736 L276.080052,795.537969 Z M276.080046,796.573126 L221.385277,828.138851 L221.385277,891.270303 L276.080046,922.836029 L330.774815,891.270303 L330.774815,828.138851 L276.080046,796.573126 Z" fill="#D0D9DD" opacity="0.5"></path>
                        <path d="M220.94163,700.064522 L221.16344,700.193863 L276.505155,732.147758 L276.505155,796.295624 L276.283346,796.424965 L220.94163,828.378988 L220.719821,828.249519 L165.378105,796.295624 L165.378105,732.147758 L165.599915,732.018289 L220.94163,700.064522 Z M220.941618,701.099288 L166.246855,732.664985 L166.246855,795.796506 L220.941618,827.362582 L275.636381,795.796506 L275.636381,732.664985 L220.941618,701.099288 Z" fill="#D0D9DD" opacity="0.5"></path>
                        <path d="M55.5635249,795.537969 L55.7853345,795.66731 L111.12705,827.621205 L111.12705,891.769071 L110.90524,891.898412 L55.5635249,923.852435 L55.3417153,923.722966 L-1.81898919e-12,891.769071 L-1.81898919e-12,827.621205 L0.221809592,827.491736 L55.5635249,795.537969 Z M55.5820247,796.573126 L0.887255755,828.138851 L0.887255755,891.270303 L55.5820247,922.836029 L110.276794,891.270303 L110.276794,828.138851 L55.5820247,796.573126 Z" fill="#D0D9DD" opacity="0.5"></path>
                        <path d="M220.941673,573.062166 L221.274377,573.246987 L276.727018,605.256263 L276.727018,669.662875 L276.394314,669.847696 L220.941673,701.857101 L220.608969,701.672151 L165.156328,669.662875 L165.156328,605.256263 L165.489032,605.071442 L220.941673,573.062166 Z M220.941691,574.578182 L166.46873,606.014513 L166.46873,668.887301 L220.941691,700.323507 L275.414653,668.887301 L275.414653,606.014513 L220.941691,574.578182 Z" fill="#FFFFFF"></path>
                        <path d="M331.199949,636.193422 L331.532652,636.378243 L386.985282,668.387519 L386.985282,732.794131 L386.652578,732.978952 L331.199949,764.988357 L330.867245,764.803407 L275.414616,732.794131 L275.414616,668.387519 L275.74732,668.202699 L331.199949,636.193422 Z M331.199973,637.709047 L276.727018,669.145476 L276.727018,732.018083 L331.199973,763.454763 L385.672928,732.018083 L385.672928,669.145476 L331.199973,637.709047 Z" fill="#FFFFFF"></path>
                        <path d="M331.1999,445.265278 L386.985233,477.459375 L386.985233,541.865987 L386.652529,542.050808 L331.1999,574.060213 L330.867196,573.875263 L275.414567,541.865987 L275.414567,477.459375 L275.747271,477.274555 L331.1999,445.265278 Z M331.199924,446.780904 L276.726969,478.217235 L276.726969,541.090023 L331.199924,572.526228 L385.672879,541.090023 L385.672879,478.217235 L331.199924,446.780904 Z" fill="#FFFFFF"></path>
                        <path d="M331.199875,317.985578 L386.985208,350.179675 L386.985208,414.586287 L386.652505,414.771108 L331.199875,446.780513 L275.414543,414.586287 L275.414543,350.179675 L275.747246,349.994855 L331.199875,317.985578 Z M331.199888,319.501594 L276.726945,350.937925 L276.726945,413.810714 L331.199888,445.246919 L385.67283,413.810714 L385.67283,350.937925 L331.199888,319.501594 Z" fill="#FFFFFF"></path>
                        <path d="M276.080076,731.66726 L276.41278,731.852081 L331.865403,763.861357 L331.865403,828.267969 L331.532699,828.452789 L276.080076,860.462194 L275.747372,860.277245 L220.294749,828.267969 L220.294749,763.861357 L220.627453,763.676536 L276.080076,731.66726 Z M276.080119,733.182494 L221.607164,764.618923 L221.607164,827.49153 L276.080119,858.92821 L330.553074,827.49153 L330.553074,764.618923 L276.080119,733.182494 Z" fill="#FFFFFF"></path>
                        <path d="M165.821794,795.316094 L166.154498,795.500915 L221.607127,827.510191 L221.607127,891.916932 L221.274423,892.101753 L165.821794,924.111029 L165.489091,923.926208 L110.036462,891.916932 L110.036462,827.510191 L110.369165,827.325371 L165.821794,795.316094 Z M165.821819,796.831719 L111.348864,828.268051 L111.348864,891.140839 L165.821819,922.577044 L220.294774,891.140839 L220.294774,828.268051 L165.821819,796.831719 Z" fill="#FFFFFF"></path>
                        <path d="M110.701885,827.122347 L111.034589,827.307168 L166.487224,859.316444 L166.487224,923.723056 L166.15452,923.907877 L110.701885,955.917282 L110.369181,955.732332 L54.9165463,923.723056 L54.9165463,859.316444 L55.24925,859.131624 L110.701885,827.122347 Z M110.701903,828.637973 L56.2289484,860.074304 L56.2289484,922.947092 L110.701903,954.383297 L165.174858,922.947092 L165.174858,860.074304 L110.701903,828.637973 Z" fill="#FFFFFF"></path>
                    </g>
                </g>
                <g id="Group" mask="url(#mask-2)">
                    <g transform="translate(50.535980, 0.000391)" id="Vector">
                        <polygon fill="#D0D9DD" opacity="0.5" points="222.217112 603.999456 225.544274 602.077403 228.852936 603.999456 228.852936 607.843499 225.544274 609.747052 222.217112 607.843499"></polygon>
                        <polygon fill="#D0D9DD" opacity="0.5" points="222.568284 540.62777 225.544244 538.909038 228.501727 540.62777 228.501727 544.046785 225.544244 545.747014 222.568284 544.046785"></polygon>
                        <polygon fill="#D0D9DD" opacity="0.5" points="219.906517 411.925364 225.544207 408.672697 231.163391 411.925364 231.163391 418.412224 225.544207 421.646416 219.906517 418.412224"></polygon>
                        <polygon fill="#D0D9DD" opacity="0.5" points="112.993932 858.927993 115.285969 857.59735 117.578007 858.927993 117.578007 861.589278 115.285969 862.90142 112.993932 861.589278"></polygon>
                        <polygon fill="#D0D9DD" opacity="0.5" points="111.515221 794.484268 115.286001 792.321953 119.056781 794.484268 119.056781 798.845779 115.286001 801.026539 111.515221 798.845779"></polygon>
                        <polygon fill="#D0D9DD" opacity="0.5" points="111.182506 730.724688 115.286003 728.359056 119.37101 730.724688 119.37101 735.455847 115.286003 737.821431 111.182506 735.455847"></polygon>
                        <polygon fill="#D0D9DD" opacity="0.5" points="165.618584 889.347895 170.405984 886.594228 175.193403 889.347895 175.193403 894.873728 170.405984 897.645895 165.618584 894.873728"></polygon>
                        <polygon fill="#D0D9DD" opacity="0.5" points="166.487285 826.308769 170.405925 824.035628 174.343073 826.308769 174.343073 830.836665 170.405925 833.109859 166.487285 830.836665"></polygon>
                        <polygon fill="#D0D9DD" opacity="0.5" points="167.503838 572.729498 170.405858 571.047713 173.307878 572.729498 173.307878 576.074579 170.405858 577.756364 167.503838 576.074579"></polygon>
                        <polygon fill="#D0D9DD" opacity="0.5" points="0 793.763731 5.02770288 790.862188 10.0554058 793.763731 10.0554058 799.585277 5.02770288 802.48682 0 799.585277"></polygon>
                        <polygon fill="#D0D9DD" opacity="0.5" points="54.5284115 825.329284 60.1476106 822.076644 65.7852934 825.329284 65.7852934 831.816169 60.1476106 835.068862 54.5284115 831.816169"></polygon>
                        <polygon fill="#FFFFFF" points="223.215257 668.166002 225.544257 666.816863 227.854782 668.166002 227.854782 670.84573 225.544257 672.176373 223.215257 670.84573"></polygon>
                        <polygon fill="#FFFFFF" points="223.215306 858.909634 225.544306 857.578991 227.854831 858.909634 227.854831 861.589416 225.544306 862.938502 223.215306 861.589416"></polygon>
                        <polygon fill="#FFFFFF" points="222.494383 794.927679 225.544266 793.171953 228.575674 794.927679 228.575674 798.420583 225.544266 800.176309 222.494383 798.420583"></polygon>
                        <polygon fill="#FFFFFF" points="221.514622 476.424643 225.544198 474.1145 229.555263 476.424643 229.555263 481.063363 225.544198 483.391996 221.514622 481.063363"></polygon>
                        <polygon fill="#FFFFFF" points="111.496715 603.740726 115.285969 601.541466 119.075237 603.740726 119.075237 608.102296 115.285969 610.283051 111.496715 608.102296"></polygon>
                        <polygon fill="#FFFFFF" points="165.803301 762.364014 170.405864 759.721169 175.008427 762.364014 175.008427 767.686578 170.405864 770.347806 165.803301 767.686578"></polygon>
                        <polygon fill="#FFFFFF" points="168.26165 700.249208 170.405812 699.011007 172.568459 700.249208 172.568459 702.725669 170.405812 703.96393 168.26165 702.725669"></polygon>
                        <polygon fill="#FFFFFF" points="2.0702146 858.539766 5.02768801 856.839538 7.98516141 858.539766 7.98516141 861.958782 5.02768801 863.677514 2.0702146 861.958782"></polygon>
                    </g>
                </g>
            </g>
        </g>
    </g>
</svg>