<?xml version="1.0" encoding="UTF-8"?>
<svg width="132px" height="118px" viewBox="0 0 132 118" version="1.1" xmlns="http://www.w3.org/2000/svg" xmlns:xlink="http://www.w3.org/1999/xlink">
    <title>top_card_logo_1@2x</title>
    <g id="页面-1" stroke="none" stroke-width="1" fill="none" fill-rule="evenodd">
        <g id="$avav_Home" transform="translate(-386.000000, -939.000000)">
            <g id="1" transform="translate(359.000000, 150.000000)">
                <g id="logo" transform="translate(0.000000, 753.000000)">
                    <g id="top_card_logo_1" transform="translate(27.000000, 36.000000)">
                        <g id="2" transform="translate(1.000000, 96.000000)" fill="#E84142" fill-rule="nonzero">
                            <path d="M5.29362306,0.314519225 L7.16698778,0.314519225 L12.4089776,12.6854808 L9.93408807,12.6854808 L8.79972101,9.85480775 L3.52336299,9.85480775 L2.42336415,12.6854808 L0,12.6854808 L5.29362306,0.314519225 Z M8.04351227,7.96774724 L6.17014754,2.93549449 L4.26236065,7.96774724 L8.04351227,7.96774724 Z" id="形状"></path>
                            <polygon id="路径" points="14.7318268 0.314519225 17.2239274 0.314519225 20.5409732 9.66260765 23.9610696 0.314519225 26.2988639 0.314519225 21.3831834 12.6854808 19.5099266 12.6854808"></polygon>
                            <path d="M34.037918,0.314519225 L35.9117144,0.314519225 L41.1532725,12.6854808 L38.678437,12.6854808 L37.5443397,9.85480775 L32.2677119,9.85480775 L31.1676052,12.6854808 L28.7445647,12.6854808 L34.037918,0.314519225 Z M36.7879151,7.96774724 L34.9146583,2.93549449 L33.0068714,7.96774724 L36.7879151,7.96774724 Z" id="形状"></path>
                            <polygon id="路径" points="45.943242 0.314519225 48.1089254 0.314519225 48.1089254 10.693544 53.281963 10.693544 53.281963 12.6854808 45.943242 12.6854808"></polygon>
                            <path d="M62.2284908,0.314519225 L64.1022871,0.314519225 L69.3438453,12.6854808 L66.8690097,12.6854808 L65.7349124,9.85480775 L60.4582847,9.85480775 L59.3581779,12.6854808 L56.9351375,12.6854808 L62.2284908,0.314519225 Z M64.9784879,7.96774724 L63.1052311,2.93549449 L61.1974442,7.96774724 L64.9784879,7.96774724 Z" id="形状"></path>
                            <polygon id="路径" points="74.1338148 0.314519225 77.0041276 0.314519225 82.8990596 9.50534803 82.9335897 9.50534803 82.9335897 0.314519225 85.0987336 0.314519225 85.0987336 12.6854808 82.349276 12.6854808 76.3334887 3.19757556 76.2994982 3.19757556 76.2994982 12.6854808 74.1338148 12.6854808"></polygon>
                            <path d="M99.6029856,3.21501838 C99.1562527,2.72579672 98.72085,2.39964895 98.2967775,2.23652021 C97.8840351,2.07344633 97.4658974,1.99193681 97.0423644,1.99193681 C96.4121905,1.99193681 95.839207,2.10838681 95.3234139,2.34139652 C94.8194905,2.56272283 94.3840878,2.87724206 94.0172057,3.2849542 C93.6503236,3.68098294 93.3643714,4.14694751 93.1577305,4.68279304 C92.9629592,5.21863858 92.8658434,5.79523888 92.8658434,6.41259393 C92.8658434,7.07657287 92.9629592,7.6881685 93.1577305,8.24727113 C93.3643714,8.80642861 93.6503236,9.28983599 94.0172057,9.69754813 C94.3840878,10.1052603 94.8194905,10.4255938 95.3234139,10.6586035 C95.839207,10.8915583 96.4121905,11.0080632 97.0423644,11.0080632 C97.5349576,11.0080632 98.0102857,10.8915583 98.4688883,10.6586035 C98.9382816,10.4139652 99.3736843,10.029565 99.7750965,9.50534803 L101.562028,10.7983654 C101.012245,11.5671658 100.342145,12.1263233 99.5511905,12.475783 C98.7607754,12.8252427 97.9185652,13 97.0250994,13 C96.0852338,13 95.2203632,12.8485547 94.4299481,12.545664 C93.6503236,12.2311448 92.9742894,11.7943613 92.4018454,11.2352038 C91.8401921,10.6644177 91.3988545,9.98294114 91.0783722,9.19082881 C90.7573504,8.39871647 90.5971093,7.5192255 90.5971093,6.55241073 C90.5971093,5.56228402 90.7573504,4.66529538 91.0783722,3.8615545 C91.3988545,3.04613022 91.8401921,2.35302507 92.4018454,1.78223904 C92.9742894,1.21145302 93.6503236,0.774614667 94.4299481,0.471778838 C95.2203632,0.157259613 96.0852338,0 97.0250994,0 C97.8500446,0 98.6118644,0.15144534 99.310559,0.454281169 C100.021123,0.745488454 100.679892,1.24639351 101.287406,1.95699632 L99.6029856,3.21501838 Z" id="路径"></path>
                            <polygon id="路径" points="106.45343 0.314519225 108.618574 0.314519225 108.618574 5.24189567 114.307404 5.24189567 114.307404 0.314519225 116.473088 0.314519225 116.473088 12.6854808 114.307404 12.6854808 114.307404 7.23383248 108.618574 7.23383248 108.618574 12.6854808 106.45343 12.6854808"></polygon>
                            <polygon id="路径" points="122.629693 0.314519225 130.690308 0.314519225 130.690308 2.30645604 124.795376 2.30645604 124.795376 5.34677198 130.381156 5.34677198 130.381156 7.33870879 124.795376 7.33870879 124.795376 10.693544 131 10.693544 131 12.6854808 122.629693 12.6854808"></polygon>
                        </g>
                        <g id="1" transform="translate(34.000000, 0.000000)">
                            <rect id="矩形" fill="#FFFFFF" fill-rule="nonzero" x="12" y="8" width="41" height="40"></rect>
                            <path d="M64,32 C64,49.6730973 49.6731074,64 32.0000154,64 C14.3269235,64 0,49.6730973 0,32 C0,14.3268887 14.3269235,0 32.0000154,0 C49.6731074,0 64,14.3268887 64,32 Z M22.9321991,44.7337207 L16.721927,44.7337207 C15.4170002,44.7337207 14.7723514,44.7337207 14.3792511,44.4821719 C13.9547938,44.2069818 13.6953318,43.7510682 13.6638759,43.2479707 C13.6403334,42.7841438 13.9626084,42.2181344 14.6072572,41.0861156 L29.9412344,14.0578315 C30.5936977,12.9100847 30.9238861,12.3362608 31.3405289,12.1239825 C31.7886276,11.8960752 32.3231807,11.8960752 32.7712794,12.1239825 C33.1879221,12.3362608 33.5181105,12.9100847 34.1705739,14.0578315 L37.3228939,19.5606456 L37.3390175,19.5887384 C38.0437096,20.820071 38.4011004,21.444442 38.5570942,22.0997745 C38.7300029,22.8151502 38.7300029,23.5697964 38.5570942,24.2851722 C38.3999134,24.9455494 38.0460836,25.5744708 37.3307084,26.8243999 L29.2762084,41.0625731 L29.2553367,41.0990738 C28.5458965,42.3404961 28.1864284,42.9696152 27.6881783,43.444521 C27.1458107,43.9633465 26.4933473,44.3406201 25.7779721,44.5528984 C25.1255087,44.7337207 24.3944055,44.7337207 22.9321991,44.7337207 Z M38.615258,44.7344131 L47.5141223,44.7344131 C48.8269625,44.7344131 49.4872404,44.7344131 49.8803407,44.4750498 C50.3047979,44.1998597 50.5720745,43.7360327 50.5957159,43.2329352 C50.618467,42.7844405 50.3031163,42.240292 49.6851754,41.1741527 C49.6641058,41.1377508 49.6426406,41.1008544 49.6208786,41.0632655 L45.163632,33.4379655 L45.112887,33.3522035 C44.486538,32.2928895 44.1701981,31.7580393 43.7643374,31.5513005 C43.3162387,31.3232943 42.7895991,31.3232943 42.3415004,31.5513005 C41.9326722,31.7634798 41.6024838,32.3216747 40.9500204,33.44578 L36.5085017,41.07108 L36.4932683,41.0973922 C35.84308,42.219717 35.5181343,42.7805827 35.5415779,43.2408486 C35.5730338,43.7439461 35.8323969,44.2077731 36.2569531,44.4828644 C36.6421399,44.7344131 37.3024178,44.7344131 38.615258,44.7344131 Z" id="形状" fill="#E84142"></path>
                        </g>
                    </g>
                </g>
            </g>
        </g>
    </g>
</svg>