<?xml version="1.0" encoding="UTF-8"?>
<svg width="186px" height="186px" viewBox="0 0 186 186" version="1.1" xmlns="http://www.w3.org/2000/svg" xmlns:xlink="http://www.w3.org/1999/xlink">
    <title>top_logo_bg_hover@2x</title>
    <defs>
        <linearGradient x1="0%" y1="-3.68199457%" x2="62.5802784%" y2="57.2224279%" id="linearGradient-1">
            <stop stop-color="#C32326" offset="0%"></stop>
            <stop stop-color="#FFFFFF" stop-opacity="0" offset="100%"></stop>
        </linearGradient>
        <polygon id="path-2" points="0 0 164 0 186 22 186 186 22 186 0 164"></polygon>
        <filter x="-10.2%" y="-10.2%" width="120.4%" height="120.4%" filterUnits="objectBoundingBox" id="filter-3">
            <feGaussianBlur stdDeviation="15" in="SourceAlpha" result="shadowBlurInner1"></feGaussianBlur>
            <feOffset dx="0" dy="-8" in="shadowBlurInner1" result="shadowOffsetInner1"></feOffset>
            <feComposite in="shadowOffsetInner1" in2="SourceAlpha" operator="arithmetic" k2="-1" k3="1" result="shadowInnerInner1"></feComposite>
            <feColorMatrix values="0 0 0 0 0.992156863   0 0 0 0 0.17254902   0 0 0 0 0.184313725  0 0 0 0.573643398 0" type="matrix" in="shadowInnerInner1"></feColorMatrix>
        </filter>
    </defs>
    <g id="页面-1" stroke="none" stroke-width="1" fill="none" fill-rule="evenodd">
        <g id="$avav_Home" transform="translate(-359.000000, -903.000000)">
            <g id="1" transform="translate(359.000000, 164.000000)">
                <g id="top_logo_bg_hover" transform="translate(0.000000, 739.000000)">
                    <g id="矩形">
                        <use fill="black" fill-opacity="1" filter="url(#filter-3)" xlink:href="#path-2"></use>
                        <path stroke="url(#linearGradient-1)" stroke-width="2" d="M163.585786,1 L185,22.4142136 L185,185 L22.4142136,185 L1,163.585786 L1,1 L163.585786,1 Z" stroke-linejoin="square"></path>
                    </g>
                    <path d="M186,164 L186,166 L165.99496,166 L165.99496,186.015333 L163.99496,186.015333 L163.99496,164.015333 L163.99996,164.015 L164,164 L186,164 Z" id="形状结合" fill="#FD2C2F" transform="translate(174.997480, 175.007666) rotate(-180.000000) translate(-174.997480, -175.007666) "></path>
                    <path d="M165,21 L165,31 L163,31 L162.999932,24.413 L152.343146,35.0710678 L150.928932,33.6568542 L161.584932,23 L155,23 L155,21 L165,21 Z" id="形状结合" fill="#FD2C2F"></path>
                </g>
            </g>
        </g>
    </g>
</svg>