<?xml version="1.0" encoding="UTF-8"?>
<svg width="18px" height="18px" viewBox="0 0 18 18" version="1.1" xmlns="http://www.w3.org/2000/svg" xmlns:xlink="http://www.w3.org/1999/xlink">
    <title>list_ic_recover@2x</title>
    <g id="页面-1" stroke="none" stroke-width="1" fill="none" fill-rule="evenodd">
        <g id="购买教程" transform="translate(-462.000000, -303.000000)" fill="#FD2C2F" fill-rule="nonzero">
            <g id="list" transform="translate(462.000000, 300.000000)">
                <g id="编组-3" transform="translate(0.000000, 0.000000)">
                    <g id="list_ic_recover" transform="translate(0.000000, 3.000000)">
                        <path d="M18,16.9987763 C16.7565714,17.0036338 11.4554857,16.9924616 10.061,16.9924616 C4.4646,16.9924616 1,13.1589327 1,8.47680086 C1,3.79466898 4.80314286,0 9.49417142,0 C14.1861714,0 17.9893143,3.79466898 17.9893143,8.47680086 C17.9893143,10.0749141 17.3967429,11.9401892 16.5074,13.3566325 C15.1979143,15.6624816 17.9237429,15.2631962 18,16.9987763 Z M5.542121,7.00059396 C4.99632002,6.98526148 4.48529824,7.26772195 4.20793816,7.73804572 C3.93057807,8.20836949 3.9306949,8.79225844 4.20824316,9.26247118 C4.48579143,9.73268393 4.9969262,10.0149399 5.542721,9.999389 C6.35429824,9.9762654 7.00016241,9.31160509 7,8.49969985 C6.99983752,7.68779461 6.35370743,7.0233928 5.542121,7.00059396 L5.542121,7.00059396 Z M9.52939241,7.00028922 C8.9864479,6.98964822 8.48015196,7.27329322 8.20568637,7.74187645 C7.93122077,8.21045968 7.93145296,8.79079542 8.20629341,9.25915888 C8.48113386,9.72752234 8.9876566,10.0107621 9.53059243,9.99968668 C10.3471602,9.98302937 11.0003266,9.31613675 11,8.49939983 C10.9996731,7.6826629 10.3459733,7.01629314 9.52939241,7.00028922 L9.52939241,7.00028922 Z M13.5418178,7.00058544 C12.9960145,6.98536334 12.4850504,7.26792634 12.2077852,7.73830513 C11.9305199,8.20868393 11.9307536,8.79257193 12.2083952,9.26272867 C12.4860368,9.73288542 12.9972269,10.0150394 13.5430178,9.99938049 C14.3545917,9.97609619 15.0003248,9.31130613 15,8.4993997 C14.999675,7.68749327 14.3534101,7.02322021 13.5418178,7.00058544 L13.5418178,7.00058544 Z" id="形状"></path>
                    </g>
                </g>
            </g>
        </g>
    </g>
</svg>