<?xml version="1.0" encoding="UTF-8"?>
<svg width="82px" height="118px" viewBox="0 0 82 118" version="1.1" xmlns="http://www.w3.org/2000/svg" xmlns:xlink="http://www.w3.org/1999/xlink">
    <title>top_card_logo_2@2x</title>
    <g id="页面-1" stroke="none" stroke-width="1" fill="none" fill-rule="evenodd">
        <g id="$avav_Home" transform="translate(-613.000000, -939.000000)" fill="#06E0FF" fill-rule="nonzero">
            <g id="1" transform="translate(359.000000, 164.000000)">
                <g id="logo" transform="translate(0.000000, 739.000000)">
                    <g id="2" transform="translate(202.000000, 0.000000)">
                        <g id="top_card_logo_2" transform="translate(52.000000, 36.000000)">
                            <g transform="translate(11.999991, 2.000000)" id="编组">
                                <path d="M39.8453219,21.0023226 L55.2452849,35.9993277 C56.2476213,36.9748182 56.2523605,38.5634741 55.2547633,39.5436098 L35.5042337,59 L20.0000087,59 L24.6894266,54.5313245 L41.9021257,37.7668235 L24.909,21.002 L39.8453219,21.0023226 Z M36.0000087,0 L31.3132626,4.46894866 L14.0993041,21.2344743 L31.0952745,38 L16.1559752,38 L0.754635816,23.0020782 C0.273290426,22.5335996 0.00179544169,21.8966767 8.70107579e-06,21.2317557 C-0.00176046463,20.5668348 0.266324636,19.9285254 0.745158068,19.4575795 L20.4944141,0 L36.0000087,0 Z" id="形状结合"></path>
                            </g>
                            <g id="荡图片模板" transform="translate(5.000000, 88.000000)">
                                <path d="M11.7321643,8.95047641 C12.4779343,8.53640748 13.0745503,8.02070345 13.5095026,7.41277497 C14.003765,6.7255346 14.2652605,5.90404033 14.2571971,5.06387484 C14.2571971,3.4433596 13.6374863,2.17762616 12.4163481,1.30337607 C11.2096442,0.437595577 9.54970463,0 7.48079442,0 L0,0 L0,18.7752029 L7.78006469,18.7752029 C9.95867526,18.7752029 11.7032958,18.2802023 12.9648499,17.302435 C14.2360268,16.3161981 14.8817193,14.9356546 14.8817193,13.1975062 C14.8817193,12.1388072 14.5776376,11.2287966 13.9800593,10.4919421 C13.4440673,9.83319609 12.6886745,9.31560993 11.7321643,8.95047641 Z M4.04832803,3.38407246 L7.15554249,3.38407246 C8.130336,3.38407246 8.86552084,3.56852135 9.34377589,3.9327138 C9.81529497,4.29031879 10.0462431,4.7627338 10.0462431,5.37254441 C10.0462431,5.98423715 9.81529497,6.47923774 9.34377589,6.83966592 C8.86552084,7.2029173 8.130336,7.38736619 7.15554249,7.38736619 L4.04832803,7.38736619 L4.04832803,3.38407246 Z M9.89805138,14.75497 C9.35917244,15.1775085 8.53641977,15.3911305 7.45385047,15.3911305 L4.04832803,15.3911305 L4.04832803,10.7968474 L7.45481276,10.7968474 C8.53641977,10.7968474 9.36013472,11.0038819 9.90093823,11.4085402 C10.4369303,11.8131984 10.6967469,12.3467827 10.6967469,13.0422303 C10.6967469,13.7743795 10.435968,14.3343136 9.89805138,14.75497 L9.89805138,14.75497 Z M20.3523028,4.73544289 L16.2760685,4.73544289 L16.2760685,18.7742619 L20.3513405,18.7742619 L20.3513405,4.73544289 L20.3523028,4.73544289 Z M60.6055973,6.84813551 C59.9530957,6.09158672 59.1308024,5.49257139 58.2027746,5.09775321 C57.2539627,4.68650747 56.18679,4.47759087 55.0330117,4.47759087 C53.6184545,4.47759087 52.3424661,4.79190683 51.2387266,5.4111281 C50.1472724,6.0186466 49.2457178,6.90552762 48.6309374,7.97647336 C48.0044907,9.05869898 47.6878993,10.3121986 47.6878993,11.7040348 C47.6878993,13.0968121 47.9958301,14.4331255 48.6020689,15.5313493 C49.1944699,16.6164133 50.0973198,17.5091662 51.2002352,18.1004588 C52.3135976,18.7017998 53.6213413,19.0067051 55.0878619,19.0067051 C56.8873326,19.0067051 58.414477,18.5644042 59.6298415,17.6901541 C60.7990163,16.8497824 61.6025233,15.6649806 62.0413247,14.1799788 L57.9381465,14.1799788 C57.722595,14.6853311 57.4185133,15.1153982 56.9825987,15.4184214 C56.4677769,15.7760263 55.8028387,15.956711 55.0060677,15.956711 C54.315148,15.956711 53.7223811,15.7929655 53.2450883,15.4692389 C52.7668333,15.1445712 52.4011654,14.6665098 52.1605945,14.0444654 C52.0069244,13.6357409 51.9038675,13.2104872 51.8536259,12.7777908 L62.1125337,12.7777908 L62.1327417,12.6535702 C62.3155756,11.5214681 62.269386,10.4486531 61.9941728,9.46523938 C61.7309838,8.50438577 61.2571658,7.6110408 60.6055973,6.84719445 L60.6055973,6.84813551 Z M51.9190612,10.1795083 C51.9813198,9.8886537 52.0665778,9.60296581 52.1740665,9.32502059 C52.4242602,8.69450653 52.7851167,8.20985766 53.2479752,7.88613104 C53.7089091,7.56240442 54.2824303,7.39960005 54.9521798,7.39960005 C55.7922536,7.39960005 56.4822111,7.66592166 57.0018444,8.19009528 C57.495496,8.68886013 57.7745583,9.37019174 57.8342199,10.1785672 L51.9190612,10.1785672 L51.9190612,10.1795083 Z M20.4369838,0 L16.1913876,0 L16.1913876,3.38407246 L20.4369838,3.38407246 L20.4369838,0 Z M42.7542701,6.32866722 C42.294808,5.78012624 41.7206153,5.33410946 41.0702734,5.02058581 C40.3100692,4.66015763 39.4199567,4.47759087 38.4249552,4.47759087 C37.2076662,4.47759087 36.1154741,4.77214445 35.1820588,5.34995883 C34.2486434,5.92871427 33.5076849,6.74555935 32.9832402,7.77696742 C32.4587955,8.80649335 32.1932052,10.0148218 32.1932052,11.3699565 C32.1932052,12.7250912 32.4722675,13.8628397 33.0246184,14.8989531 C33.5779316,15.9388307 34.3448718,16.7669686 35.3042688,17.3617222 C36.2646281,17.9574168 37.3606693,18.2604399 38.5615995,18.2604399 C39.4680709,18.2604399 40.2965973,18.0684625 41.0221593,17.689213 C41.5814557,17.4010612 42.0705348,16.998202 42.4559622,16.5081755 L42.4559622,18.0364663 C42.4559622,18.9841195 42.2019192,19.7115633 41.7015316,20.1962122 C41.1992195,20.6808611 40.4351661,20.9255382 39.4305418,20.9255382 C38.5644864,20.9255382 37.8841517,20.7335608 37.4078212,20.3543113 C37.0180963,20.0437596 36.6774478,19.6372192 36.5985405,18.7752029 L32.6685734,18.7752029 C32.7051402,19.9816492 33.0669589,20.793789 33.5788939,21.5061757 C34.1514528,22.3032584 34.9578466,22.927185 35.9778675,23.3581932 C36.9863409,23.7835549 38.1584026,24 39.4574858,24 C41.6399455,24 43.3768678,23.4635925 44.6201385,22.4067757 C45.8711074,21.3443124 46.5042902,19.8564875 46.5042902,17.9856487 L46.5042902,4.73544289 L42.7552324,4.73544289 L42.7552324,6.32866722 L42.7542701,6.32866722 Z M42.0373687,13.2351488 C41.8011589,13.732647 41.4245717,14.1538223 40.9519125,14.4491236 C40.4900163,14.7314434 39.9318917,14.8763675 39.2948598,14.8763675 C38.3710673,14.8763675 37.6541659,14.568639 37.1008527,13.9371839 C36.5485018,13.3076109 36.2684772,12.4437125 36.2684772,11.3690154 C36.2684772,10.2943183 36.5475395,9.43041995 37.0998904,8.80084696 C37.6474299,8.17786143 38.3855016,7.86166333 39.2938975,7.86166333 C40.2032557,7.86166333 41.0058004,8.18162569 41.570661,8.81496295 C42.1403331,9.45394659 42.4290182,10.3216092 42.4290182,11.3934831 C42.4290182,12.0889307 42.2971853,12.7072109 42.0373687,13.2342077 L42.0373687,13.2351488 Z M72,8.09410658 L72,4.73638395 L69.0582984,4.73638395 L69.0582984,0 L65.0099703,0 L65.0099703,4.73638395 L62.4974473,4.73638395 L62.4974473,8.09410658 L65.0099703,8.09410658 L65.0099703,13.5899306 C65.0099703,16.6455711 65.625832,18.890954 69.4614953,18.8213151 L71.8700917,18.7742619 L71.8700917,15.628279 L70.6749352,15.628279 C68.9697682,15.628279 69.0650343,14.6561581 69.0650343,12.8502529 L69.0582984,8.09504764 L72,8.09504764 L72,8.09410658 Z M31.2030152,8.09410658 L31.2030152,4.73638395 L28.2613135,4.73638395 L28.2613135,0 L24.2129855,0 L24.2129855,4.73638395 L21.6995001,4.73638395 L21.6995001,8.09410658 L24.2110609,8.09410658 L24.2110609,13.5899306 C24.2110609,16.6455711 24.8269226,18.890954 28.6635482,18.8213151 L31.0711823,18.7742619 L31.0711823,15.628279 L29.8789126,15.628279 C28.1737457,15.628279 28.2680495,14.6561581 28.2680495,12.8502529 L28.2613135,8.09504764 L31.2030152,8.09504764 L31.2030152,8.09410658 Z" id="形状"></path>
                            </g>
                        </g>
                    </g>
                </g>
            </g>
        </g>
    </g>
</svg>