<?xml version="1.0" encoding="UTF-8"?>
<svg width="18px" height="18px" viewBox="0 0 18 18" version="1.1" xmlns="http://www.w3.org/2000/svg" xmlns:xlink="http://www.w3.org/1999/xlink">
    <title>logo_ic_purse@2x</title>
    <g id="页面-1" stroke="none" stroke-width="1" fill="none" fill-rule="evenodd">
        <g id="$avav_Home" transform="translate(-972.000000, -1113.000000)" fill="#0D8DFF">
            <g id="1" transform="translate(357.000000, 150.000000)">
                <g id="logo" transform="translate(1.000000, 753.000000)">
                    <g id="3备份-5" transform="translate(606.005040, 202.000000)">
                        <g id="logo_ic_purse" transform="translate(7.994960, 8.000000)">
                            <path d="M17,0 L17,4 L12,4 C9.790861,4 8,5.790861 8,8 C8,10.1421954 9.68396847,11.8910789 11.8003597,11.9951047 L12,12 L17,12 L17,16 L0,16 L0,0 L17,0 Z M17,6 L17,10 L12,10 L11.8507377,9.99451426 C10.8158778,9.91816512 10,9.0543618 10,8 C10,6.9456382 10.8158778,6.08183488 11.8507377,6.00548574 L12,6 L17,6 Z M12,7 C11.4477153,7 11,7.44771525 11,8 C11,8.55228475 11.4477153,9 12,9 C12.5522847,9 13,8.55228475 13,8 C13,7.44771525 12.5522847,7 12,7 Z" id="形状结合"></path>
                        </g>
                    </g>
                </g>
            </g>
        </g>
    </g>
</svg>