<?xml version="1.0" encoding="UTF-8"?>
<svg width="18px" height="18px" viewBox="0 0 18 18" version="1.1" xmlns="http://www.w3.org/2000/svg" xmlns:xlink="http://www.w3.org/1999/xlink">
    <title>logo_ic_Trading @2x</title>
    <g id="页面-1" stroke="none" stroke-width="1" fill="none" fill-rule="evenodd">
        <g id="$avav_Home" transform="translate(-366.000000, -911.000000)" fill="#FD2C2F">
            <g id="1" transform="translate(357.000000, 150.000000)">
                <g id="logo" transform="translate(1.000000, 753.000000)">
                    <g id="logo_ic_Trading-" transform="translate(8.000000, 8.000000)">
                        <path d="M9,0 C13.9705627,0 18,4.02943725 18,9 C18,13.9705627 13.9705627,18 9,18 C4.02943725,18 0,13.9705627 0,9 C0,4.02943725 4.02943725,0 9,0 Z M15,10 L5,10 L5,12 L11,12 L11,14 L12,14 L15,10 Z M8,4 L7,4 L4,8 L14,8 L14,6 L8,6 L8,4 Z" id="logo_ic_Trading"></path>
                    </g>
                </g>
            </g>
        </g>
    </g>
</svg>