<?xml version="1.0" encoding="UTF-8"?>
<svg width="138px" height="118px" viewBox="0 0 138 118" version="1.1" xmlns="http://www.w3.org/2000/svg" xmlns:xlink="http://www.w3.org/1999/xlink">
    <title>top_card_logo_6@2x</title>
    <g id="页面-1" stroke="none" stroke-width="1" fill="none" fill-rule="evenodd">
        <g id="$avav_Home" transform="translate(-990.000000, -1141.000000)" fill="#3861FB">
            <g id="1" transform="translate(359.000000, 164.000000)">
                <g id="logo" transform="translate(0.000000, 739.000000)">
                    <g id="6" transform="translate(606.005040, 202.000000)">
                        <g id="top_card_logo_6" transform="translate(24.994960, 36.000000)">
                            <path d="M67.9971463,0 C85.5902697,0 99.9084484,14.273561 99.9892526,31.8563902 L99.9892526,31.8563902 L99.990837,31.9281951 L99.990837,32.001561 C100.190471,36.9061463 98.2781058,40.9756098 94.7290608,43.1843902 C91.8010986,45.0044878 88.2076905,45.1480976 85.3494417,43.5590244 C82.179067,41.7966829 80.3601814,38.2189268 80.3601814,33.7451707 L80.3601814,33.7451707 L80.3601814,27.6760976 C80.1573789,27.964878 79.9355636,28.2989268 79.6947355,28.6860488 L79.6947355,28.6860488 L72.1799494,40.6883902 C69.6433329,44.7469268 67.2271303,45.056 65.645904,44.6033171 C64.0662621,44.1506341 62.1824163,42.6037073 62.1824163,37.8177561 L62.1824163,37.8177561 L62.1824163,27.8540488 L48.5201772,49.4673171 C53.3161412,54.8120976 60.2700513,58.1822439 67.9987307,58.1822439 C74.6167491,58.1838049 80.9891863,55.683122 85.7946567,51.2 C86.3285979,50.7020488 87.0368225,50.4257561 87.7719818,50.4257561 C88.5831921,50.4257561 89.3595457,50.7629268 89.9045776,51.3560976 C90.9978103,52.5330732 90.9280969,54.3734634 89.7493069,55.4661463 C83.818916,60.9685854 76.0934054,64 67.9987307,64 C50.3580755,64 36.0050401,49.6437073 36.0050401,32 C36.0050401,14.3547317 50.3580755,0 67.9971463,0 Z M66.947812,6.19354839 C52.778934,6.19354839 41.2509418,17.8486529 41.2509418,32.1758808 C41.2463071,36.4311402 42.2836991,40.6228884 44.2744965,44.3870968 L44.2744965,44.3870968 L59.1463749,20.6028762 C60.9412031,17.8672416 62.7889119,17.7231793 64.0238284,18.0825605 C65.8902009,18.6262795 66.8731571,20.4293818 66.947812,23.4438467 L66.947812,23.4438467 L66.947812,36.5457704 L73.585877,25.8262963 C74.6497093,24.1037449 77.4803743,19.5169873 81.2442256,20.6090724 C83.4652089,21.2519311 84.793444,23.6328316 84.793444,26.9787947 L84.793444,26.9787947 L84.793444,33.9077264 C84.793444,36.2235666 85.4886678,37.8888028 86.7531351,38.59982 C87.7485338,39.1590295 89.0581052,39.0722823 90.1701522,38.3736577 C91.8794384,37.2986121 92.7815184,35.091206 92.6477617,32.3168449 C92.6462064,32.29206 92.6508723,32.2703732 92.6508723,32.2455883 C92.649317,32.2223525 92.6430958,32.2006657 92.6430958,32.1758808 C92.6430958,17.8486529 81.1166901,6.19354839 66.947812,6.19354839 Z" id="形状结合"></path>
                            <path d="M10.7917552,95.1821488 C11.1491264,95.3991581 11.4586025,95.8817279 11.4586025,96.3164821 C11.4586025,97.0160611 10.8632294,97.5949978 10.1963822,97.5949978 C10.0298546,97.5949978 9.86332695,97.5471821 9.72037847,97.4986309 C8.93416186,96.9196943 7.93425939,96.5334914 6.8864618,96.5334914 C4.41065317,96.5334914 2.69600832,98.5601373 2.69600832,101.069353 C2.69600832,103.579304 4.41065317,105.581675 6.8864618,105.581675 C8.12436612,105.581675 9.22005881,105.074829 10.0534337,104.303159 C10.2685932,104.148678 10.52649,104.064081 10.7917552,104.061874 C11.4586025,104.061874 11.9825012,104.59226 11.9825012,105.268299 C11.9825012,105.702317 11.7201834,106.08852 11.3871282,106.305529 C10.1963822,107.31922 8.57752752,107.994524 6.91077778,107.994524 C3.10127461,107.994524 0.00504011866,104.85782 0.00504011866,100.997262 C0.00504011866,97.1367036 3.10053776,94 6.91077778,94 C8.33952568,94 9.69606249,94.4340186 10.7917552,95.1821488 Z M17.7579144,98.1018431 C20.3530923,98.1018431 22.5437409,100.297683 22.5437409,102.999632 C22.5437409,105.702317 20.3530923,107.994524 17.7579144,107.994524 C15.043367,107.994524 12.7812443,105.702317 12.7812443,102.999632 C12.7812443,100.297683 15.043367,98.1018431 17.7579144,98.1018431 Z M17.7335984,105.581675 C18.8771862,105.581675 19.8527727,104.495893 19.8527727,103.023908 C19.8527727,101.552658 18.8771862,100.635335 17.7335984,100.635335 C16.4956941,100.635335 15.4714756,101.528383 15.4714756,103.023908 C15.4714756,104.495893 16.4956941,105.581675 17.7335984,105.581675 Z M24.1758588,106.498263 L24.1758588,99.5981037 C24.1758588,98.8499734 24.7712318,98.2224856 25.5095533,98.2224856 C26.2478748,98.2224856 26.866827,98.8499734 26.866827,99.5981037 L26.866827,106.498263 C26.866827,107.246393 26.2478748,107.873881 25.5095533,107.873881 C24.7712318,107.873881 24.1758588,107.246393 24.1758588,106.498263 L24.1758588,106.498263 Z M23.9621729,95.616903 C23.9621729,94.7238547 24.6518625,94 25.5095533,94 C26.3900864,94 27.1048288,94.7238547 27.1048288,95.616903 C27.1048288,96.4849401 26.3900864,97.1852548 25.5095533,97.1852548 C24.6518625,97.1852548 23.9621729,96.4849401 23.9621729,95.616903 Z M32.0232879,102.758347 L32.0232879,106.498263 C32.0232879,107.246393 31.4043358,107.873881 30.6652774,107.873881 C29.9276928,107.873881 29.3315829,107.246393 29.3315829,106.498263 L29.3315829,99.283992 C29.3315829,98.7050554 29.8083234,98.2224856 30.3801173,98.2224856 C30.9511744,98.2224856 31.4043358,98.7050554 31.4043358,99.283992 C32.4992916,98.2710368 33.451299,98.1018431 34.3561481,98.1018431 C37.0471163,98.1018431 38.2378624,100.128489 38.2378624,102.420696 L38.2378624,106.498263 C38.2378624,107.246393 37.6189102,107.873881 36.8805887,107.873881 C36.1422672,107.873881 35.5468942,107.246393 35.5468942,106.498263 L35.5468942,102.758347 C35.5468942,101.576198 35.4039457,100.586783 33.7136168,100.586783 C32.5228708,100.586783 32.0225511,101.576198 32.0225511,102.758347 L32.0232879,102.758347 Z M46.9894038,104.182517 C46.6799277,104.182517 46.4662418,104.037599 46.2989774,103.844129 L43.1555846,100.442601 L43.1555846,106.498263 C43.1555846,107.246393 42.5366325,107.873881 41.798311,107.873881 C41.0599895,107.873881 40.4646164,107.246393 40.4646164,106.498263 L40.4646164,94.507581 C40.5434591,94.3008705 40.7446186,94.1655156 40.9656729,94.1691205 C41.2029379,94.1691205 41.3930447,94.362663 41.53673,94.507581 L46.5369792,100.129225 C46.6799277,100.298418 46.8700344,100.394785 46.9658246,100.394785 C47.060878,100.394785 47.2509847,100.298418 47.3939332,100.12996 L52.3949193,94.507581 C52.5378678,94.362663 52.7279745,94.1691205 52.9659763,94.1691205 C53.2039782,94.1691205 53.3948218,94.3141117 53.466296,94.507581 L53.466296,106.498263 C53.466296,107.246393 52.870923,107.873881 52.1326015,107.873881 C51.39428,107.873881 50.7753278,107.246393 50.7753278,106.498263 L50.7753278,100.442601 L47.6326719,103.844129 C47.4654075,104.037599 47.2509847,104.182517 46.9894038,104.182517 Z M59.9321355,105.581675 C61.1464607,105.581675 62.1699423,104.495893 62.1699423,103.023908 C62.1699423,101.552658 61.1228816,100.586783 59.9321355,100.586783 C58.7413895,100.586783 57.7886453,101.576198 57.7886453,103.023908 C57.7886453,104.447342 58.7413895,105.581675 59.9321355,105.581675 Z M62.7896313,106.812375 L62.7409994,106.498263 C62.2178374,107.535494 60.5503508,107.994524 59.4789741,107.994524 C56.9545335,107.994524 55.0976771,105.702317 55.0976771,102.999632 C55.0976771,100.297683 57.0024286,98.1018431 59.6219226,98.1018431 C60.0743472,98.1018431 61.5745693,98.2224856 62.7409994,99.5981037 L62.7888945,99.283992 C62.7888945,98.7050554 63.241319,98.2224856 63.8131129,98.2224856 C64.38417,98.2224856 64.8601737,98.7050554 64.8601737,99.283992 L64.8601737,106.812375 C64.8601737,107.391311 64.38417,107.873881 63.8123761,107.873881 C63.241319,107.873881 62.7881576,107.391311 62.7881576,106.812375 L62.7896313,106.812375 Z M72.3266525,100.586783 L72.0414924,100.586783 C70.3504267,100.683886 70.0173715,101.649025 70.0173715,102.758347 L70.0173715,106.498263 C70.0173715,107.246393 69.3984193,107.873881 68.6600978,107.873881 C67.9217763,107.873881 67.3264033,107.246393 67.3264033,106.498263 L67.3264033,99.283992 C67.3264033,98.7050554 67.802407,98.2224856 68.3742009,98.2224856 C68.9459948,98.2224856 69.3984193,98.7050554 69.3984193,99.283992 C70.3983218,98.343128 71.2081175,98.1503944 72.0414924,98.1018431 L72.3030734,98.1018431 C72.9463415,98.1018431 73.5409777,98.6565041 73.5409777,99.3568188 C73.5409777,100.007847 72.9699207,100.586783 72.3266525,100.586783 L72.3266525,100.586783 Z M82.6977854,105.871511 C82.8171548,106.064245 82.888629,106.281254 82.888629,106.522539 C82.888629,107.222118 82.2453609,107.873881 81.5549345,107.873881 C81.0789308,107.873881 80.6736645,107.511954 80.3641884,107.125751 L77.2694276,103.530753 L77.2694276,106.498263 C77.2694276,107.246393 76.6497386,107.873881 75.9114171,107.873881 C75.1730956,107.873881 74.5777226,107.246393 74.5777226,106.498263 L74.5777226,95.5448118 C74.5777226,94.7959459 75.1730956,94.1691937 75.9114171,94.1691937 C76.6497386,94.1691937 77.2686908,94.7959459 77.2686908,95.5448118 L77.2686908,102.37288 L80.3641884,98.9463403 C80.6736645,98.5844129 81.0546148,98.2224856 81.5313553,98.2224856 C82.1982026,98.2224856 82.8171548,98.8499734 82.8171548,99.5495525 C82.8171548,99.7665618 82.7692597,99.983571 82.6498903,100.17704 L80.1976608,102.854714 L82.6977854,105.870775 L82.6977854,105.871511 Z M87.9736157,100.635335 C87.2352942,100.635335 86.0445482,101.021537 86.0445482,102.155135 L89.9255256,102.155135 C89.9255256,100.997262 88.6876213,100.635335 87.9728789,100.635335 L87.9736157,100.635335 Z M91.4972219,103.868405 L86.0445482,103.868405 C86.0445482,105.485308 87.5919286,105.726593 88.282355,105.726593 C88.7834115,105.726593 89.497417,105.630226 90.0448949,105.388205 C90.2114225,105.268299 90.4973195,105.171196 90.7353213,105.171196 C91.3306943,105.171196 91.8302772,105.678777 91.8302772,106.281989 C91.8302772,106.691732 91.5686962,107.05366 91.235641,107.246393 C90.4022661,107.849606 89.3301525,107.994524 88.3066709,107.994524 C85.5921236,107.994524 83.3300008,106.523274 83.3300008,103.120275 C83.3300008,100.442601 84.7108536,98.1018431 87.9257206,98.1018431 C90.5208986,98.1018431 92.4971244,99.7908374 92.5450195,102.806899 C92.5450195,103.385835 92.0690158,103.868405 91.4972219,103.868405 L91.4972219,103.868405 Z M98.9872799,107.994524 L98.2489584,107.994524 C96.2005215,107.994524 95.0105123,107.101475 95.0105123,103.892681 L95.0105123,100.586783 L94.3200859,100.586783 C93.6768178,100.586783 93.1057607,100.007847 93.1057607,99.3568188 C93.1057607,98.6565041 93.6768178,98.1018431 94.3200859,98.1018431 L95.0105123,98.1018431 L95.0105123,95.5440762 C95.0105123,94.7959459 95.6058853,94.168458 96.3442068,94.168458 C97.0817915,94.168458 97.7014805,94.7959459 97.7014805,95.5440762 L97.7014805,98.1018431 L98.8200155,98.1018431 C99.4632836,98.1018431 100.035078,98.6565041 100.035078,99.3568188 C100.035078,100.007847 99.4632836,100.586783 98.8200155,100.586783 L97.7014805,100.586783 L97.7014805,103.36156 C97.7014805,105.195472 97.7965339,105.581675 98.6063296,105.581675 L98.9872799,105.581675 C99.6298112,105.581675 100.177289,106.112796 100.177289,106.788099 C100.177289,107.439863 99.6298112,107.994524 98.9872799,107.994524 Z M112.025065,95.1821488 C112.381699,95.3991581 112.691912,95.8817279 112.691912,96.3164821 C112.691912,97.0160611 112.096539,97.5949978 111.429692,97.5949978 C111.263164,97.5949978 111.0959,97.5471821 110.953688,97.4986309 C110.167472,96.9196943 109.167569,96.5334914 108.119772,96.5334914 C105.643963,96.5334914 103.928581,98.5601373 103.928581,101.069353 C103.928581,103.579304 105.643226,105.581675 108.119772,105.581675 C109.357676,105.581675 110.453369,105.074829 111.286744,104.303159 C111.501903,104.148678 111.7598,104.064081 112.025065,104.061874 C112.691912,104.061874 113.215074,104.59226 113.215074,105.268299 C113.215074,105.702317 112.953493,106.08852 112.620438,106.305529 C111.429692,107.31922 109.810101,107.994524 108.143351,107.994524 C104.333848,107.994524 101.23835,104.85782 101.23835,100.997262 C101.23835,97.1367036 104.333111,94 108.143351,94 C109.572836,94 110.929372,94.4340186 112.025065,95.1821488 L112.025065,95.1821488 Z M118.848276,105.581675 C120.062601,105.581675 121.086083,104.495893 121.086083,103.023908 C121.086083,101.552658 120.038285,100.586783 118.847539,100.586783 C117.65753,100.586783 116.704785,101.576198 116.704785,103.023908 C116.704785,104.447342 117.65753,105.581675 118.847539,105.581675 L118.848276,105.581675 Z M121.705035,106.812375 L121.657876,106.498263 C121.133978,107.535494 119.467228,107.994524 118.395114,107.994524 C115.871411,107.994524 114.013817,105.702317 114.013817,102.999632 C114.013817,100.297683 115.919306,98.1018431 118.538063,98.1018431 C118.990487,98.1018431 120.49071,98.2224856 121.657876,99.5981037 L121.705035,99.283992 C121.705035,98.7050554 122.157459,98.2224856 122.729253,98.2224856 C123.30031,98.2224856 123.777051,98.7050554 123.777051,99.283992 L123.777051,106.812375 C123.777051,107.391311 123.30031,107.873881 122.729253,107.873881 C122.157459,107.873881 121.705035,107.391311 121.705035,106.812375 Z M131.171318,105.581675 C132.362065,105.581675 133.314072,104.447342 133.314072,103.023908 C133.314072,101.576198 132.362065,100.586783 131.171318,100.586783 C129.980572,100.586783 128.932775,101.551923 128.932775,103.023908 C128.932775,104.495893 129.956993,105.581675 131.171318,105.581675 Z M128.932775,107.198578 L128.932775,110.624382 C128.932775,111.372512 128.313823,112 127.575501,112 C126.837917,112 126.241807,111.372512 126.241807,110.624382 L126.241807,99.283992 C126.241807,98.7050554 126.718547,98.2224856 127.290341,98.2224856 C127.861398,98.2224856 128.31456,98.7050554 128.31456,99.3803588 C129.313725,98.343128 130.552366,98.1018431 131.480795,98.1018431 C134.100289,98.1018431 136.00504,100.297683 136.00504,102.999632 C136.00504,105.702317 134.148184,107.994524 131.623743,107.994524 C130.838263,107.994524 129.671096,107.753239 128.932775,107.198578 L128.932775,107.198578 Z" id="形状"></path>
                        </g>
                    </g>
                </g>
            </g>
        </g>
    </g>
</svg>