<?xml version="1.0" encoding="UTF-8"?>
<svg width="60px" height="60px" viewBox="0 0 60 60" version="1.1" xmlns="http://www.w3.org/2000/svg" xmlns:xlink="http://www.w3.org/1999/xlink">
    <title>logo@2x</title>
    <g id="页面-1" stroke="none" stroke-width="1" fill="none" fill-rule="evenodd" opacity="0.06">
        <g id="AVAV艺术投票_图片_加载中" transform="translate(-447.000000, -328.000000)" fill="#FFFFFF">
            <g id="pic" transform="translate(364.000000, 208.000000)">
                <g id="编组-2" transform="translate(83.000000, 120.000000)">
                    <path d="M30,0 C46.568531,0 60,13.431469 60,30 C60,46.568531 46.568531,60 30,60 C13.431469,60 0,46.568531 0,30 C0,13.431469 13.431469,0 30,0 Z M10,47 L21.0513347,16.0474732 L29.174538,16 L33,27.1087289 L26.62423,27.1087289 L25.0184805,22.7886677 L20.3901437,35.7963247 L24.5934292,35.7963247 L26.8131417,41.8728943 L18.2176591,41.8728943 L16.37577,47 L10,47 Z M34.1111111,31.1914242 L28,31.1914242 L33.3868313,47 L39.4526749,47 L50,16 L43.8888889,16 L36.3744856,37.8851455 L34.1111111,31.1914242 Z" id="椭圆_1"></path>
                </g>
            </g>
        </g>
    </g>
</svg>