<?xml version="1.0" encoding="UTF-8"?>
<svg width="98px" height="30px" viewBox="0 0 98 30" version="1.1" xmlns="http://www.w3.org/2000/svg" xmlns:xlink="http://www.w3.org/1999/xlink">
    <title>logo@2x</title>
    <defs>
        <rect id="path-1" x="0" y="0" width="226" height="300"></rect>
    </defs>
    <g id="页面-1" stroke="none" stroke-width="1" fill="none" fill-rule="evenodd">
        <g id="AVAV艺术投票_图片_加载中" transform="translate(-429.000000, -344.000000)">
            <g id="pic_1" transform="translate(364.000000, 208.000000)">
                <path d="M82.6031544,136 L99.7283951,165 L95.4271718,165 L82.6031544,143.229917 L75.0361876,155.440443 L82.204893,155.440443 L79.8153245,159.216066 L72.9652282,159.216066 L69.3808755,165 L65,165 L82.6031544,136 Z M124.516735,136 L141.641975,165 L137.340752,165 L124.516735,143.229917 L116.949768,155.440443 L124.118473,155.440443 L121.728905,159.216066 L114.878808,159.216066 L111.294456,165 L106.91358,165 L124.516735,136 Z M90.5565227,136 L103.679695,157.710383 L116.938897,136 L121.5,136 L103.679695,165 L86.5555556,136 L90.5565227,136 Z M131.272572,136 L144.395744,157.710383 L157.438897,136.871585 L162,136.871585 L144.395744,165 L127.271605,136 L131.272572,136 Z" id="logo" fill="#FFFFFF" opacity="0.1" mask="url(#mask-2)"></path>
            </g>
        </g>
    </g>
</svg>