<?xml version="1.0" encoding="UTF-8"?>
<svg width="16px" height="16px" viewBox="0 0 16 16" version="1.1" xmlns="http://www.w3.org/2000/svg" xmlns:xlink="http://www.w3.org/1999/xlink">
    <title>pic_hover_ic_vote@2x</title>
    <g id="页面-1" stroke="none" stroke-width="1" fill="none" fill-rule="evenodd">
        <g id="AVAV艺术投票_分类" transform="translate(-932.000000, -327.000000)" fill="#FFFFFF" fill-rule="nonzero">
            <g id="编组-5" transform="translate(868.000000, 316.000000)">
                <g id="编组-2" transform="translate(64.000000, 9.000000)">
                    <g id="pic_hover_ic_vote" transform="translate(0.000000, 2.000000)">
                        <path d="M10.1838142,6.00833571 C11.6750619,0.29205 9.1560944,0 9.1560944,0 C8.08812979,0 8.30979646,0.876235714 8.22916224,1.02222857 C8.22916224,3.81775714 5,6 5,6 L5,14 C5,14.7822714 5.5969528,15 6,15 L12.5818201,15 C13.1259204,15 13.5691917,13.5187071 13.5691917,13.5187071 C15,8.47011429 15,6.96805714 15,6.96805714 C15,5.92495714 14.0326578,6.00833571 14.0326578,6.00833571 L10.1838142,6.00833571 Z M1.48361947,6.01092857 C1.00751622,6.01092857 1,6.49602857 1,6.49602857 L1.47610324,14.4914357 C1.47610324,14.9999637 1.96723894,14.9999637 1.96723894,14.9999637 L3.5,14.9999637 C3.91560177,14.9999637 4,14.5 4,14.5 L4,6.5 C4,5.8859 3.5,6 3.5,6 L1.48361947,6.01092857 Z" id="形状"></path>
                    </g>
                </g>
            </g>
        </g>
    </g>
</svg>